<?xml version="1.0" encoding="utf-8"?>
<!-- Generator: Adobe Illustrator 23.0.3, SVG Export Plug-In . SVG Version: 6.00 Build 0)  -->
<svg version="1.1" id="Layer_1" xmlns="http://www.w3.org/2000/svg" xmlns:xlink="http://www.w3.org/1999/xlink" x="0px" y="0px"
	 viewBox="0 0 315 129" style="enable-background:new 0 0 315 129;" xml:space="preserve">
<style type="text/css">
	.st0{fill:#E4F3F6;}
</style>
<path class="st0" d="M133.48,128.04c-5.76-6.87-15.72-8.36-24.68-8.02c-8.96,0.34-18.13,1.99-26.75-0.45
	c-12.7-3.6-21.59-15.62-25.21-28.31c-3.47-12.19-3-25.4-7.83-37.12c-1.61-3.91-3.88-7.67-7.24-10.22
	c-4.67-3.54-10.87-4.35-16.73-4.13c-8.71,0.33-17.47,3.06-24.85,7.71C0.13,67.33,0.06,87.17,0,107c0,5,0,10,0,15c0,2.33,0,4.67,0,7
	c44.79,0.07,89.58,0.14,134.37,0.21C134.09,128.81,133.8,128.42,133.48,128.04z"/>
<path class="st0" d="M315,129c-0.09-20.87,0-104,0-125c-1.79,0.7-4.33,1.75-7.27,3.25c0,0-3.51,1.82-7.06,4.03
	c-11.63,7.23-23.75,15.73-32.56,26.77c-11.07,13.86-12.28,27.33-14.68,44.17c-1.65,11.6-5.95,24.1-16.21,29.76
	c-4.82,2.65-10.39,3.47-15.78,4.58c-5.39,1.11-10.94,2.69-14.94,6.47c-1.76,1.66-3.1,3.85-3.79,6.18
	C240.13,129.14,277.57,129.07,315,129z"/>
<path class="st0" d="M237.88,10.54c-7.23,6.53-9.78,16.7-11.26,26.33c-0.91,5.91-1.55,11.97-0.44,17.84
	c1.11,5.87,4.21,11.61,9.33,14.7c2.57,1.55,5.95,2.34,8.55,0.83c4.03-2.33,3.71-8.06,4.25-12.68c1.61-13.88,14.78-23.6,19.26-36.84
	c1.52-4.49,1.85-9.83-1.01-13.61c-4.2-5.56-12.82-4.89-19.26-2.25C243.89,6.26,240.62,8.07,237.88,10.54z"/>
<path class="st0" d="M78.13,79.82c1.09-3.8,1.81-7.73,1.89-11.68c0.11-5.51-1.05-11.04-3.37-16.05c-0.91-1.97-2.22-4.03-4.32-4.57
	c-2.3-0.59-4.63,0.91-6.16,2.73c-3.13,3.74-4.11,8.8-4.7,13.65c-0.45,3.71-0.74,7.45-0.87,11.19c-0.11,3.15-0.08,6.4,1.14,9.3
	c1.23,2.9,3.94,5.38,7.08,5.42C73.74,89.87,76.78,84.53,78.13,79.82z"/>
</svg>
