<?xml version="1.0" encoding="utf-8"?>
<!-- Generator: Adobe Illustrator 23.0.3, SVG Export Plug-In . SVG Version: 6.00 Build 0)  -->
<svg version="1.1" id="Layer_1" xmlns="http://www.w3.org/2000/svg" xmlns:xlink="http://www.w3.org/1999/xlink" x="0px" y="0px"
	 viewBox="0 0 1920 1080" style="enable-background:new 0 0 1920 1080;" xml:space="preserve">
<style type="text/css">
	.st0{fill:url(#SVGID_1_);}
	.st1{opacity:0.2;fill:url(#SVGID_2_);enable-background:new    ;}
	.st2{fill:url(#SVGID_3_);}
	.st3{opacity:0.3;fill:url(#SVGID_4_);enable-background:new    ;}
	.st4{fill:#33226C;}
	.st5{fill:#FFB300;}
	.st6{opacity:0.51;fill:#33226C;enable-background:new    ;}
	.st7{fill:#471F5E;}
	.st8{fill:#31236C;}
	.st9{opacity:0.3;fill:#31236C;enable-background:new    ;}
	.st10{fill:#FBB1A6;}
	.st11{fill:#F1F2F2;}
	.st12{opacity:0.46;fill:#F1F2F2;enable-background:new    ;}
	.st13{fill:#D1D3D4;}
	.st14{fill:url(#SVGID_5_);}
	.st15{opacity:0.19;fill:url(#SVGID_6_);enable-background:new    ;}
	.st16{fill:url(#SVGID_7_);}
	.st17{fill:url(#SVGID_8_);}
	.st18{opacity:0.52;fill:#FFB300;enable-background:new    ;}
	.st19{fill:url(#SVGID_9_);}
	.st20{opacity:0.1;fill:url(#SVGID_10_);enable-background:new    ;}
	.st21{fill:url(#SVGID_11_);}
	.st22{fill:url(#SVGID_12_);}
	.st23{opacity:0.44;fill:url(#SVGID_13_);enable-background:new    ;}
	.st24{fill:url(#SVGID_14_);}
	.st25{fill:url(#SVGID_15_);}
	.st26{fill:url(#SVGID_16_);}
	.st27{opacity:0.26;fill:#FBB1A6;enable-background:new    ;}
	.st28{fill:url(#SVGID_17_);}
	.st29{opacity:0.33;fill:url(#SVGID_18_);enable-background:new    ;}
	.st30{fill:url(#SVGID_19_);}
	.st31{opacity:0.33;fill:url(#SVGID_20_);enable-background:new    ;}
	.st32{fill:#362478;}
	.st33{fill:url(#SVGID_21_);}
	.st34{fill:url(#SVGID_22_);}
	.st35{opacity:0.1;}
	.st36{fill:url(#SVGID_23_);}
	.st37{fill:url(#SVGID_24_);}
	.st38{opacity:0.3;fill:url(#SVGID_25_);enable-background:new    ;}
</style>
<linearGradient id="SVGID_1_" gradientUnits="userSpaceOnUse" x1="562.0703" y1="-106.1689" x2="1607.7255" y2="1450.84" gradientTransform="matrix(1 0 0 -1 0 1082)">
	<stop  offset="0" style="stop-color:#5D00AA"/>
	<stop  offset="0.9947" style="stop-color:#8D78DB"/>
</linearGradient>
<rect x="0.11" y="-0.48" class="st0" width="1917.66" height="1195.4"/>
<linearGradient id="SVGID_2_" gradientUnits="userSpaceOnUse" x1="156.6911" y1="1195.2085" x2="1393.4584" y2="-214.9349" gradientTransform="matrix(1 0 0 -1 0 1082)">
	<stop  offset="0" style="stop-color:#5D00AA"/>
	<stop  offset="0.9947" style="stop-color:#8D78DB"/>
</linearGradient>
<path class="st1" d="M980.66-0.48c0,0-528.36,117.29-380.29,409.4C697.62,600.75,674.21,892.5,0.11,535.01V-0.48H980.66z"/>
<linearGradient id="SVGID_3_" gradientUnits="userSpaceOnUse" x1="784.8427" y1="-515.3583" x2="1532.2158" y2="1353.0757" gradientTransform="matrix(1 0 0 -1 0 1082)">
	<stop  offset="0" style="stop-color:#5D00AA"/>
	<stop  offset="0.9947" style="stop-color:#8D78DB"/>
</linearGradient>
<path class="st2" d="M1592.06-1.05c0,0-989.48,113.91-657.4,524.16c111.44,137.68-28.77,369.83-255.67,380.26
	C457.78,913.53-10.82,818.78,1.18,1198h640.39H1920V-1.05H1592.06z"/>
<linearGradient id="SVGID_4_" gradientUnits="userSpaceOnUse" x1="395.094" y1="-271.3973" x2="2054.0305" y2="217.0934" gradientTransform="matrix(1 0 0 -1 0 1082)">
	<stop  offset="0" style="stop-color:#965BF1"/>
	<stop  offset="0.9947" style="stop-color:#BB68FA"/>
</linearGradient>
<path class="st3" d="M839.5,1198c0,0-72-284.13,245.17-294.19C1517.38,890.09,1809,1198,1809,1198H839.5z"/>
<g>
	<rect x="868.79" y="577.39" class="st4" width="10.04" height="354.92"/>
	<rect x="378.59" y="577.39" class="st4" width="10.04" height="354.92"/>
	<path class="st5" d="M625.22,889.53c0,0-13.67,36.05-4.97,40.71c8.7,4.66,89.81,0,89.81,0s7.15-14.09-14.6-19.32
		c-21.75-5.23-31.7-18.29-31.7-18.29L625.22,889.53z"/>
	<path class="st5" d="M484.01,889.53c0,0-13.67,36.05-4.97,40.71c8.7,4.66,89.81,0,89.81,0s7.15-14.09-14.6-19.32
		s-31.7-18.29-31.7-18.29L484.01,889.53z"/>
	<path class="st4" d="M1029.07,585.09H226.95c-1.62,0-2.93-1.31-2.93-2.93v-3.07c0-1.62,1.31-2.93,2.93-2.93h802.12
		c1.62,0,2.93,1.31,2.93,2.93v3.07C1032,583.78,1030.69,585.09,1029.07,585.09z"/>
	<path class="st6" d="M1029.2,576.17H226.82c-1.55,0-2.8,1.26-2.8,2.8v2.48c0-1.55,1.26-2.8,2.8-2.8h802.38c1.55,0,2.8,1.26,2.8,2.8
		v-2.48C1032,577.42,1030.74,576.17,1029.2,576.17z"/>
	<rect x="996.58" y="577.39" class="st4" width="10.04" height="354.92"/>
	<path class="st7" d="M752.85,469.13c0,0,24.7,41.39,24.7,67.86c0,15.02-17.49,31.61-17.49,31.61l-98.17-0.14
		c0,0,57.33-16.06,42.89-51.28c-14.44-35.22-23.36-48.06-23.36-48.06H752.85z"/>
	<path class="st8" d="M571.49,642.46c0,0,107.87,7.48,146.93,41.7c12.27,18.6,18.97,20.09-50.97,209.08c0,0-27.53,13.39-46.13-3.72
		c21.58-76.64,31.99-152.54,31.99-152.54s-81.84,8.93-101.18-1.49C532.77,725.09,537.28,662.51,571.49,642.46z"/>
	<path class="st8" d="M430.34,642.46c0,0,107.87,7.48,146.93,41.7c12.27,18.6,18.97,20.09-50.97,209.08c0,0-27.53,13.39-46.13-3.72
		c21.57-76.64,31.99-152.54,31.99-152.54s-57.84,2.76-77.41-7.24C399.77,711.9,396.14,662.51,430.34,642.46z"/>
	<path class="st9" d="M430.34,642.46c0,0,107.87,7.48,146.93,41.7c12.27,18.6,18.97,20.09-50.97,209.08c0,0-27.53,13.39-46.13-3.72
		c21.57-76.64,31.99-152.54,31.99-152.54s-57.84,2.76-77.41-7.24C399.77,711.9,396.14,662.51,430.34,642.46z"/>
	<rect x="250.8" y="577.39" class="st4" width="10.04" height="354.92"/>
	<path class="st10" d="M705.41,534.95c0,0,20.57-7.59,30.86-1.45c11.53,6.89,16.74,16.19,19.53,31.25
		c2.24,12.05-13.95-7.81-17.3-9.3c-3.35-1.49-10.41,13.02-20.08,9.3s-14.51-27.75-14.51-27.75"/>
	<polygon class="st11" points="1004.78,476.63 921,476.63 878.83,575.97 962.63,575.97 	"/>
	<path class="st12" d="M972.21,476.63h-51.25l-34,80.12c8.03,4.18,17.02,6.52,26.51,6.52c33.95,0,61.47-29.94,61.47-66.88
		C974.95,489.52,973.99,482.88,972.21,476.63z"/>
	<polygon class="st13" points="1004.78,476.63 1018.61,575.97 962.63,575.97 	"/>
	<g>
		<path class="st13" d="M977.91,515.57h-59.24c-1.15,0-1.93-1.18-1.48-2.24l0,0c0.25-0.6,0.84-0.98,1.48-0.98h59.24
			c1.15,0,1.93,1.18,1.48,2.24l0,0C979.14,515.18,978.56,515.57,977.91,515.57z"/>
		<path class="st13" d="M973.36,526.3h-59.24c-1.15,0-1.93-1.18-1.48-2.24l0,0c0.25-0.6,0.84-0.98,1.48-0.98h59.24
			c1.15,0,1.93,1.18,1.48,2.24l0,0C974.59,525.91,974,526.3,973.36,526.3z"/>
		<path class="st13" d="M968.8,537.03h-59.24c-1.15,0-1.93-1.18-1.48-2.24l0,0c0.25-0.6,0.84-0.98,1.48-0.98h59.24
			c1.15,0,1.93,1.18,1.48,2.24l0,0C970.03,536.64,969.45,537.03,968.8,537.03z"/>
		<path class="st13" d="M942.75,546.1h-37.05c-1.15,0-1.93-1.18-1.48-2.24l0,0c0.25-0.6,0.84-0.98,1.48-0.98h37.05
			c1.15,0,1.93,1.18,1.48,2.24l0,0C943.99,545.72,943.4,546.1,942.75,546.1z"/>
		<path class="st13" d="M955.91,567.41h-37.05c-1.15,0-1.93-1.18-1.48-2.24l0,0c0.25-0.6,0.84-0.98,1.48-0.98h37.05
			c1.15,0,1.93,1.18,1.48,2.24l0,0C957.14,567.02,956.55,567.41,955.91,567.41z"/>
	</g>
	<g>
		<g>
			<path class="st13" d="M934.23,487.9l-6.49,15.3h-3.54l6.49-15.3H934.23z"/>
			<polygon class="st13" points="938.4,487.9 937.18,490.78 938.53,490.78 943.6,490.78 932.85,503.19 936.69,503.19 947.89,490.19 
				948.86,487.9 			"/>
		</g>
	</g>
	<g>
		<path class="st5" d="M333.57,523.95c0.15-2.89-2.15-5.32-5.05-5.32h-22.06h-11.13h-22.06c-2.9,0-5.2,2.43-5.05,5.32
			c0.56,10.66,3.47,35.06,17.98,52.21h9.12h11.13h9.12C330.1,559.02,333.01,534.61,333.57,523.95z"/>
		
			<linearGradient id="SVGID_5_" gradientUnits="userSpaceOnUse" x1="262.4944" y1="704.3394" x2="314.3267" y2="505.1941" gradientTransform="matrix(1 0 0 -1 0 1082)">
			<stop  offset="0" style="stop-color:#6AD0FB"/>
			<stop  offset="0.2275" style="stop-color:#6ACDFA"/>
			<stop  offset="0.3874" style="stop-color:#69C4F5"/>
			<stop  offset="0.5266" style="stop-color:#69B4EE"/>
			<stop  offset="0.654" style="stop-color:#689EE4"/>
			<stop  offset="0.7733" style="stop-color:#6682D6"/>
			<stop  offset="0.8849" style="stop-color:#6560C6"/>
			<stop  offset="0.9917" style="stop-color:#6337B3"/>
			<stop  offset="0.9947" style="stop-color:#6336B2"/>
		</linearGradient>
		<path class="st14" d="M292.14,518.63c0,0-29.52-36.1-23.92-114.89c45.62,47.71,32.68,114.89,32.68,114.89H292.14z"/>
		
			<linearGradient id="SVGID_6_" gradientUnits="userSpaceOnUse" x1="265.6717" y1="705.1665" x2="317.5041" y2="506.021" gradientTransform="matrix(1 0 0 -1 0 1082)">
			<stop  offset="0" style="stop-color:#6AD0FB"/>
			<stop  offset="0.2275" style="stop-color:#6ACDFA"/>
			<stop  offset="0.3874" style="stop-color:#69C4F5"/>
			<stop  offset="0.5266" style="stop-color:#69B4EE"/>
			<stop  offset="0.654" style="stop-color:#689EE4"/>
			<stop  offset="0.7733" style="stop-color:#6682D6"/>
			<stop  offset="0.8849" style="stop-color:#6560C6"/>
			<stop  offset="0.9917" style="stop-color:#6337B3"/>
			<stop  offset="0.9947" style="stop-color:#6336B2"/>
		</linearGradient>
		<path class="st15" d="M268.22,403.73c-0.01,0.09-0.01,0.18-0.02,0.27c35.72,45.2,25.69,101.26,22.97,113.33
			c0.61,0.86,0.96,1.29,0.96,1.29h8.76C300.9,518.63,313.85,451.45,268.22,403.73z"/>
		
			<linearGradient id="SVGID_7_" gradientUnits="userSpaceOnUse" x1="309.3368" y1="727.3289" x2="313.4288" y2="512.9053" gradientTransform="matrix(1 0 0 -1 0 1082)">
			<stop  offset="0" style="stop-color:#6AD0FB"/>
			<stop  offset="0.2275" style="stop-color:#6ACDFA"/>
			<stop  offset="0.3874" style="stop-color:#69C4F5"/>
			<stop  offset="0.5266" style="stop-color:#69B4EE"/>
			<stop  offset="0.654" style="stop-color:#689EE4"/>
			<stop  offset="0.7733" style="stop-color:#6682D6"/>
			<stop  offset="0.8849" style="stop-color:#6560C6"/>
			<stop  offset="0.9917" style="stop-color:#6337B3"/>
			<stop  offset="0.9947" style="stop-color:#6336B2"/>
		</linearGradient>
		<path class="st16" d="M322.6,364.96c0,0-41.8,45.75-21.7,153.67h5.56C306.46,518.63,336.54,437.32,322.6,364.96z"/>
		
			<linearGradient id="SVGID_8_" gradientUnits="userSpaceOnUse" x1="347.0295" y1="654.7253" x2="305.5639" y2="536.8756" gradientTransform="matrix(1 0 0 -1 0 1082)">
			<stop  offset="0" style="stop-color:#6AD0FB"/>
			<stop  offset="0.2275" style="stop-color:#6ACDFA"/>
			<stop  offset="0.3874" style="stop-color:#69C4F5"/>
			<stop  offset="0.5266" style="stop-color:#69B4EE"/>
			<stop  offset="0.654" style="stop-color:#689EE4"/>
			<stop  offset="0.7733" style="stop-color:#6682D6"/>
			<stop  offset="0.8849" style="stop-color:#6560C6"/>
			<stop  offset="0.9917" style="stop-color:#6337B3"/>
			<stop  offset="0.9947" style="stop-color:#6336B2"/>
		</linearGradient>
		<path class="st17" d="M352.44,425.23c0,0-34.78,25.49-45.98,93.39h4.4C310.86,518.63,356.01,473.01,352.44,425.23z"/>
		<path class="st18" d="M306.46,576.17h9.12c3.29-3.89,5.98-8.16,8.19-12.55c-33.52-2.73-36.86-26.87-36.8-36.72
			c0.01-2.3-1.86-4.16-4.15-4.16h-14.5l0,0c-0.08,0.39-0.11,0.79-0.09,1.21c0.56,10.66,3.47,35.06,17.98,52.21h9.12L306.46,576.17
			L306.46,576.17z"/>
	</g>
	<polygon class="st7" points="507.69,474.92 538.59,255 924.51,255 893.61,474.92 	"/>
	
		<linearGradient id="SVGID_9_" gradientUnits="userSpaceOnUse" x1="692.3637" y1="924.5144" x2="738.3708" y2="522.3751" gradientTransform="matrix(1 0 0 -1 0 1082)">
		<stop  offset="0" style="stop-color:#6AD0FB"/>
		<stop  offset="0.2275" style="stop-color:#6ACDFA"/>
		<stop  offset="0.3874" style="stop-color:#69C4F5"/>
		<stop  offset="0.5266" style="stop-color:#69B4EE"/>
		<stop  offset="0.654" style="stop-color:#689EE4"/>
		<stop  offset="0.7733" style="stop-color:#6682D6"/>
		<stop  offset="0.8849" style="stop-color:#6560C6"/>
		<stop  offset="0.9917" style="stop-color:#6337B3"/>
		<stop  offset="0.9947" style="stop-color:#6336B2"/>
	</linearGradient>
	<polygon class="st19" points="888.64,469.13 514.29,469.13 543.57,260.79 917.91,260.79 	"/>
	<path class="st10" d="M573.38,335.54c0,0,1.95,11.13-2.54,26.37c-2.32,7.87-1.92,16.31,1.43,23.8c0.03,0.05,0.05,0.11,0.08,0.17
		c0.98,2.17,0.19,4.72-1.86,5.94c-0.51,0.3-1.09,0.6-1.75,0.89c-1.89,0.82-3.3,2.47-3.74,4.49l-2.7,12.17l-20.58-3.97l-5.7-45.64
		l17.11-31.75L573.38,335.54z"/>
	<path class="st10" d="M531.27,407.75c0,0-6.86,8.18-7.97,24.55l-48.24-2.97l6.88-22.2l31.12-59.65l18.2-1.86
		C531.27,345.61,536.45,369.81,531.27,407.75z"/>
	
		<linearGradient id="SVGID_10_" gradientUnits="userSpaceOnUse" x1="525.3784" y1="729.1249" x2="869.2314" y2="729.1249" gradientTransform="matrix(1 0 0 -1 0 1082)">
		<stop  offset="0" style="stop-color:#6AD0FB"/>
		<stop  offset="0.2275" style="stop-color:#6ACDFA"/>
		<stop  offset="0.3874" style="stop-color:#69C4F5"/>
		<stop  offset="0.5266" style="stop-color:#69B4EE"/>
		<stop  offset="0.654" style="stop-color:#689EE4"/>
		<stop  offset="0.7733" style="stop-color:#6682D6"/>
		<stop  offset="0.8849" style="stop-color:#6560C6"/>
		<stop  offset="0.9917" style="stop-color:#6337B3"/>
		<stop  offset="0.9947" style="stop-color:#6336B2"/>
	</linearGradient>
	<path class="st20" d="M525.38,393.35c34.67,31.31,90.48,51.62,153.42,51.62c105.17,0,190.43-56.71,190.43-126.67
		c0-20.71-7.47-40.26-20.72-57.51H544.01L525.38,393.35z"/>
	
		<linearGradient id="SVGID_11_" gradientUnits="userSpaceOnUse" x1="441.2705" y1="689.3164" x2="589.7009" y2="749.5814" gradientTransform="matrix(1 0 0 -1 0 1082)">
		<stop  offset="0" style="stop-color:#43295D"/>
		<stop  offset="1" style="stop-color:#774B88"/>
	</linearGradient>
	<path class="st21" d="M561.47,414.3c-0.81,4.88-5.61,8.04-10.41,6.83c-9.2-2.33-21.96-7.78-20.51-19.96
		c2.23-18.85,4.96-50.1-7.19-49.36c-12.15,0.74-10.17,15.38-4.71,26.79c5.46,11.41-17.61,31.25-36.7,28.52
		c0,0,1.36-12.03-8.43-25.55c-13.34-18.41-16.61-29.51-17.36-39.68c-0.74-10.17,3.47-23.56,16.86-27.78
		c4.17-12.27,26.08-31.83,88.8-10.35c1.92,0.66,3.88,1.2,5.88,1.51c10.06,1.57,16.92-1.57,16.92-1.57s2.76,16.24-5.33,27.05
		c-3.36,4.49-8.86,6.88-14.44,6.32c-12.88-1.28-19.22,5.26-21.64,14.75c-2.73,10.67-6.7,46.13,3.22,51.34
		c9.92,5.21,15.87,6.2,15.87,6.2L561.47,414.3z"/>
	
		<linearGradient id="SVGID_12_" gradientUnits="userSpaceOnUse" x1="687.106" y1="596.4487" x2="769.4788" y2="405.281" gradientTransform="matrix(1 0 0 -1 0 1082)">
		<stop  offset="0" style="stop-color:#965BF1"/>
		<stop  offset="0.9947" style="stop-color:#BB68FA"/>
	</linearGradient>
	<rect x="642.93" y="568.61" class="st22" width="163.19" height="7.56"/>
	
		<linearGradient id="SVGID_13_" gradientUnits="userSpaceOnUse" x1="688.3777" y1="592.1801" x2="767.9545" y2="407.5015" gradientTransform="matrix(1 0 0 -1 0 1082)">
		<stop  offset="0" style="stop-color:#965BF1"/>
		<stop  offset="0.9947" style="stop-color:#BB68FA"/>
	</linearGradient>
	<rect x="642.93" y="571.25" class="st23" width="163.19" height="4.91"/>
	<path class="st9" d="M642.69,898.17c17.22-56.98,37.2-165.29,37.2-165.29l-26.59,4.12c0,0-8.67,63.15-26.56,132.4
		c-1.15,7.17-2.27,14.73-3.17,22.02C629.58,896.03,636.32,897.84,642.69,898.17z"/>
	
		<linearGradient id="SVGID_14_" gradientUnits="userSpaceOnUse" x1="594.0067" y1="73.6913" x2="617.8671" y2="284.4584" gradientTransform="matrix(1 0 0 -1 0 1082)">
		<stop  offset="0" style="stop-color:#43295D"/>
		<stop  offset="1" style="stop-color:#774B88"/>
	</linearGradient>
	<path class="st24" d="M580.46,736.63l-9.63,3.19c-2.96,0.98-4.51,4.23-3.39,7.15l79.07,207.11c0.9,2.35,3.29,3.79,5.79,3.48l0,0
		c3.43-0.43,5.61-3.87,4.53-7.15l-69.43-210.3C586.43,737.24,583.33,735.68,580.46,736.63z"/>
	
		<linearGradient id="SVGID_15_" gradientUnits="userSpaceOnUse" x1="466.1048" y1="88.1732" x2="489.9449" y2="298.7604" gradientTransform="matrix(1 0 0 -1 0 1082)">
		<stop  offset="0" style="stop-color:#43295D"/>
		<stop  offset="1" style="stop-color:#774B88"/>
	</linearGradient>
	<path class="st25" d="M500.19,732.99l9.95,1.98c3.06,0.61,4.99,3.65,4.25,6.68l-52.92,215.28c-0.6,2.45-2.8,4.17-5.32,4.17l0,0
		c-3.45,0-6.04-3.15-5.37-6.54l42.98-217.26C494.34,734.32,497.23,732.39,500.19,732.99z"/>
	
		<linearGradient id="SVGID_16_" gradientUnits="userSpaceOnUse" x1="393.7062" y1="96.37" x2="417.5462" y2="306.9572" gradientTransform="matrix(1 0 0 -1 0 1082)">
		<stop  offset="0" style="stop-color:#43295D"/>
		<stop  offset="1" style="stop-color:#774B88"/>
	</linearGradient>
	<path class="st26" d="M436.49,735.46l10.96,3.01c3.37,0.93,5.29,4.48,4.21,7.8L375.3,982.55c-0.87,2.69-3.46,4.43-6.28,4.23l0,0
		c-3.86-0.27-6.5-4.01-5.48-7.74l65.41-239.29C429.85,736.49,433.22,734.56,436.49,735.46z"/>
	<path class="st27" d="M511.67,431.58l11.62,0.72c1.12-16.37,7.97-24.55,7.97-24.55c0.38-2.82,0.71-5.55,0.99-8.22
		C527.76,401.9,513.41,411.66,511.67,431.58z"/>
	
		<linearGradient id="SVGID_17_" gradientUnits="userSpaceOnUse" x1="371.3712" y1="599.5264" x2="542.2195" y2="499.6995" gradientTransform="matrix(1 0 0 -1 0 1082)">
		<stop  offset="0" style="stop-color:#9A72F6"/>
		<stop  offset="1" style="stop-color:#724CE4"/>
	</linearGradient>
	<path class="st28" d="M456.06,431.21c0,0-31.91,0.37-60.93,58.41c-29.01,58.04-27.89,63.5-27.89,63.5s-15.27,60.02,74.02,32.49
		L456.06,431.21z"/>
	
		<linearGradient id="SVGID_18_" gradientUnits="userSpaceOnUse" x1="390.8876" y1="552.6954" x2="452.0073" y2="552.6954" gradientTransform="matrix(1 0 0 -1 0 1082)">
		<stop  offset="0" style="stop-color:#9A72F6"/>
		<stop  offset="1" style="stop-color:#724CE4"/>
	</linearGradient>
	<path class="st29" d="M452.01,489.62c-3.93-14.28-7.15-23.84-7.15-23.84s-78.18,82.63-46.34,126.91
		c10.73,0.71,25.09-1.15,44.3-7.08L452.01,489.62z"/>
	
		<linearGradient id="SVGID_19_" gradientUnits="userSpaceOnUse" x1="394.1387" y1="534.1946" x2="818.3957" y2="460.9293" gradientTransform="matrix(1 0 0 -1 0 1082)">
		<stop  offset="0" style="stop-color:#9A72F6"/>
		<stop  offset="1" style="stop-color:#724CE4"/>
	</linearGradient>
	<path class="st30" d="M407.79,558.42c0,0-0.74-32,9.67-71.43c10.42-39.44,13.41-63.66,82.59-58.99
		c69.19,4.67,64.19,9.14,73.75,15.83c7.72,5.41,41.97,62.85,54.86,84.75c3.04,5.17,8.71,8.2,14.69,7.88
		c17.77-0.96,54.03-2.87,59.06-2.59c6.7,0.37,18.23,17.86,15.62,33.11c-56.54,20.09-84.58,30.88-106.02,24.56
		c-25.02-7.38-43.21-59.11-48.92-61.01c-1.54,12.91-7.27,74.21,6.88,104.54c15.62,33.48-93.02,89.29-162.2,51.34
		C408.53,605.3,407.79,558.42,407.79,558.42z"/>
	
		<linearGradient id="SVGID_20_" gradientUnits="userSpaceOnUse" x1="459.9917" y1="562.7157" x2="909.8124" y2="287.5412" gradientTransform="matrix(1 0 0 -1 0 1082)">
		<stop  offset="0" style="stop-color:#9A72F6"/>
		<stop  offset="1" style="stop-color:#724CE4"/>
	</linearGradient>
	<path class="st31" d="M715.58,550.5c-6.85,4.28-79.23,48.09-109.52,8.07c-31.8-42.03-45.02-85.2-72.49-54.53
		c-27.47,30.67-29.91,114.74-29.26,118.14c0.44,2.3,13.53,39.04,22.05,62.84c30.39-13.55,50.35-34.14,43.03-49.82
		c-14.15-30.33-8.43-91.63-6.88-104.54c5.7,1.9,23.9,53.63,48.92,61.01c21.45,6.32,49.47-4.47,106.02-24.56
		C718.4,561.56,717.46,555.72,715.58,550.5z"/>
	<path class="st32" d="M383.97,655.89c0,0-10.42-106.4,79.61-106.4c98.3,0,84.07,100.45,110.22,138.4
		c10.95,23.66,29.61,42.39,47.49,51.7c17.88,9.31-109.78,51.05-178.54,11.92C386.21,719.32,383.97,655.89,383.97,655.89z"/>
	
		<linearGradient id="SVGID_21_" gradientUnits="userSpaceOnUse" x1="402.3929" y1="429.1317" x2="623.321" y2="429.1317" gradientTransform="matrix(1 0 0 -1 0 1082)">
		<stop  offset="0" style="stop-color:#533AA9"/>
		<stop  offset="1" style="stop-color:#2F2070"/>
	</linearGradient>
	<path class="st33" d="M621.62,739.59c-17.88-9.31-36.53-28.05-47.49-51.7c-26.14-37.95-11.92-138.4-110.22-138.4
		c-30.77,0-49.8,12.42-61.53,28.79c10.5-5.99,23.77-9.67,40.5-9.67c98.3,0,84.07,100.45,110.22,138.4
		c10.06,21.73,26.63,39.31,43.12,49.25C616.52,749.95,627.82,742.82,621.62,739.59z"/>
	
		<linearGradient id="SVGID_22_" gradientUnits="userSpaceOnUse" x1="539.9377" y1="79.8131" x2="563.7778" y2="290.4014" gradientTransform="matrix(1 0 0 -1 0 1082)">
		<stop  offset="0" style="stop-color:#43295D"/>
		<stop  offset="1" style="stop-color:#774B88"/>
	</linearGradient>
	<path class="st34" d="M529.77,734.81L529.77,734.81c-6.53,1.3-10.66,7.78-9.07,14.26l57.89,235.5c0.67,2.74,3.14,4.67,5.96,4.67
		l0,0c3.87,0,6.77-3.53,6.02-7.33l-47.06-237.91C542.26,737.67,536.1,733.55,529.77,734.81z"/>
	<polygon class="st5" points="974.81,501.64 962.63,501.64 967.8,489.45 979.98,489.45 	"/>
	<g class="st35">
		
			<linearGradient id="SVGID_23_" gradientUnits="userSpaceOnUse" x1="536.0913" y1="779.8041" x2="545.975" y2="679.3193" gradientTransform="matrix(1 0 0 -1 0 1082)">
			<stop  offset="0" style="stop-color:#43295D"/>
			<stop  offset="1" style="stop-color:#774B88"/>
		</linearGradient>
		<path class="st36" d="M561.57,413.63l0.71-4.27c0,0-5.95-0.99-15.87-6.2c-8.33-4.37-6.87-30.1-4.57-44.54
			c-3.26,0.56-6.64,2.01-10.12,4.53c1.7,10.65,0.17,26.61-1.19,38.03c-1.4,11.85,10.62,17.33,19.74,19.76
			C555.46,422.31,560.7,418.91,561.57,413.63z"/>
		
			<linearGradient id="SVGID_24_" gradientUnits="userSpaceOnUse" x1="488.4182" y1="777.0761" x2="498.6422" y2="673.1323" gradientTransform="matrix(1 0 0 -1 0 1082)">
			<stop  offset="0" style="stop-color:#43295D"/>
			<stop  offset="1" style="stop-color:#774B88"/>
		</linearGradient>
		<path class="st37" d="M472.33,379.94c0.38,0.54,0.77,1.08,1.17,1.63c9.79,13.52,8.43,25.55,8.43,25.55
			c19.1,2.73,42.16-17.12,36.7-28.52c-0.43-0.89-0.83-1.82-1.21-2.74C502.33,386.65,486.07,385.21,472.33,379.94z"/>
	</g>
	
		<ellipse transform="matrix(0.7312 -0.6821 0.6821 0.7312 -31.3317 577.0269)" class="st11" cx="716.59" cy="328.27" rx="19.84" ry="17.25"/>
	<path class="st11" d="M744.08,372.17h-69.55c-1.49,0-2.64-1.32-2.43-2.8l0.32-2.3c0.17-1.21,1.21-2.12,2.43-2.12h69.55
		c1.49,0,2.64,1.32,2.43,2.8l-0.32,2.3C746.34,371.27,745.3,372.17,744.08,372.17z"/>
	<path class="st11" d="M741.71,389.14h-69.55c-1.49,0-2.64-1.32-2.43-2.8l0.32-2.3c0.17-1.21,1.21-2.12,2.43-2.12h69.55
		c1.49,0,2.64,1.32,2.43,2.8l-0.32,2.3C743.98,388.23,742.94,389.14,741.71,389.14z"/>
	<path class="st5" d="M711.88,415.92h-18.43c-1.49,0-2.64-1.32-2.43-2.8l0.32-2.3c0.17-1.21,1.21-2.12,2.43-2.12h18.43
		c1.49,0,2.64,1.32,2.43,2.8l-0.32,2.3C714.15,415.01,713.11,415.92,711.88,415.92z"/>
</g>
<linearGradient id="SVGID_25_" gradientUnits="userSpaceOnUse" x1="1305.7367" y1="455.838" x2="1920" y2="455.838" gradientTransform="matrix(1 0 0 -1 0 1082)">
	<stop  offset="0" style="stop-color:#965BF1"/>
	<stop  offset="0.9947" style="stop-color:#BB68FA"/>
</linearGradient>
<path class="st38" d="M1920,306.3c0,0-316-51.28-496,99.52s-112.34,358.68-69.05,407.32c66.13,74.3,138.9,165.2,565.04,135.52
	L1920,306.3L1920,306.3z"/>
</svg>
