<?xml version="1.0" encoding="utf-8"?>
<!-- Generator: Adobe Illustrator 23.0.3, SVG Export Plug-In . SVG Version: 6.00 Build 0)  -->
<svg version="1.1" id="Layer_1" xmlns="http://www.w3.org/2000/svg" xmlns:xlink="http://www.w3.org/1999/xlink" x="0px" y="0px"
	 viewBox="0 0 95 99" style="enable-background:new 0 0 95 99;" xml:space="preserve">
<style type="text/css">
	.st0{fill:#424242;}
	.st1{fill:url(#SVGID_1_);}
	.st2{fill:#FF9900;}
	.st3{fill:url(#SVGID_2_);}
	.st4{fill:url(#SVGID_3_);}
	.st5{fill:url(#SVGID_4_);}
	.st6{fill:url(#SVGID_5_);}
	.st7{fill:url(#SVGID_6_);}
	.st8{fill:url(#SVGID_7_);}
	.st9{fill:url(#SVGID_8_);}
	.st10{fill:url(#SVGID_9_);}
	.st11{fill:url(#SVGID_10_);}
	.st12{fill:url(#SVGID_11_);}
	.st13{fill:url(#SVGID_12_);}
	.st14{fill:url(#SVGID_13_);}
	.st15{fill:url(#SVGID_14_);}
	.st16{fill:url(#SVGID_15_);}
	.st17{fill:url(#SVGID_16_);}
	.st18{fill:url(#SVGID_17_);}
	.st19{fill:url(#SVGID_18_);}
	.st20{fill:url(#SVGID_19_);}
	.st21{fill:url(#SVGID_20_);}
	.st22{fill:url(#SVGID_21_);}
	.st23{fill:url(#SVGID_22_);}
	.st24{fill:url(#SVGID_23_);}
	.st25{fill:url(#SVGID_24_);}
	.st26{fill:url(#SVGID_25_);}
	.st27{fill:url(#SVGID_26_);}
	.st28{fill:url(#SVGID_27_);}
	.st29{fill:url(#SVGID_28_);}
	.st30{fill:url(#SVGID_29_);}
	.st31{fill:#3299BB;}
</style>
<g>
	<path class="st0" d="M79.63,33.89c-0.3-0.51-0.6-1.02-0.94-1.53C66.43,13.46,49.3-0.97,40.61,0.96c-2.49,0.51-5.07,2.52-7.57,5.66
		c5.05,0.17,10.1,2.26,14.75,5.85c2.65,1.29,5.85,3.59,9.24,6.69c4.1,3.26,17.71,18.68,25.26,37.05c2.9,7.4,3.73,13.41,2.16,15.82
		l-0.05,0.08c-1.69,2.61-8.37,4.38-17.31,4.53c-0.8,3.04-1.85,5.86-3.13,8.41c14.27,0.53,26.05-1.99,29.38-7.21
		C98,70.8,91.62,51.41,79.63,33.89z"/>
	
		<linearGradient id="SVGID_1_" gradientUnits="userSpaceOnUse" x1="3662.4971" y1="-3804.2463" x2="3645.5205" y2="-3801.417" gradientTransform="matrix(0.0519 -0.9986 0.9986 0.0519 3693.2766 3898.9636)">
		<stop  offset="0" style="stop-color:#F0584B"/>
		<stop  offset="1" style="stop-color:#C73F3D"/>
	</linearGradient>
	<path class="st1" d="M90.1,52.78c-0.71-1.66-1.48-3.35-2.33-5.05c-1.19,3.79-2.66,7.69-4.36,11.59c1.96,5.95,2.38,10.65,1.04,12.71
		l-0.05,0.08c-0.3,0.47-0.78,0.91-1.39,1.32C86.36,71.69,92.8,68.58,90.1,52.78z"/>
	<path class="st2" d="M80.66,23.68l0.07,0.07c2.16,2.39,2.06,9.71-0.34,18.84C71.12,66.9,66.37,69.75,55.66,80.33
		c-7.3,5.84-13.88,8.87-16.93,7.88l-0.09-0.03c-2.04-0.66-4.31-3.73-6.33-8.39c-3.64-1.02-7.1-2.19-10.31-3.47
		c3.27,11.67,8.17,20.32,13.41,21.98c7.86,2.63,24.45-8.08,38.12-23.69c17.31-20.43,21.63-50.89,15.05-58
		c-4.24-4.58-16.36-5.27-30.54-2.42c3.35,2.13,6.75,4.55,10.07,7.21C74.36,21.04,79.01,21.85,80.66,23.68z"/>
	
		<linearGradient id="SVGID_2_" gradientUnits="userSpaceOnUse" x1="3620.6765" y1="-3799.4683" x2="3673.9797" y2="-3799.4683" gradientTransform="matrix(0.0519 -0.9986 0.9986 0.0519 3693.2766 3898.9636)">
		<stop  offset="0" style="stop-color:#FCBA39"/>
		<stop  offset="1" style="stop-color:#D96D2D"/>
	</linearGradient>
	<path class="st3" d="M88.95,50.2c-0.02-0.05-0.05-0.1-0.07-0.15c0.01,0.02,0.02,0.05,0.04,0.08C88.92,50.15,88.94,50.17,88.95,50.2
		z"/>
	
		<linearGradient id="SVGID_3_" gradientUnits="userSpaceOnUse" x1="3620.593" y1="-3798.2756" x2="3673.9795" y2="-3798.2756" gradientTransform="matrix(0.0519 -0.9986 0.9986 0.0519 3693.2766 3898.9636)">
		<stop  offset="0" style="stop-color:#FCBA39"/>
		<stop  offset="1" style="stop-color:#D96D2D"/>
	</linearGradient>
	<path class="st4" d="M90,52.57c-0.01-0.03-0.02-0.06-0.04-0.08c0.01,0.02,0.02,0.05,0.03,0.07C90,52.56,90,52.56,90,52.57z"/>
	
		<radialGradient id="SVGID_4_" cx="3649.6614" cy="-3840.0359" r="37.8579" gradientTransform="matrix(0.0519 -0.9986 0.9986 0.0519 3693.2766 3898.9636)" gradientUnits="userSpaceOnUse">
		<stop  offset="0" style="stop-color:#F9B314"/>
		<stop  offset="1" style="stop-color:#EC5222"/>
	</radialGradient>
	<path class="st5" d="M89.96,52.48c-0.26-0.62-0.54-1.24-0.83-1.86c0.16,0.36,0.32,0.72,0.48,1.08
		C89.73,51.96,89.85,52.22,89.96,52.48z"/>
	
		<radialGradient id="SVGID_5_" cx="3649.668" cy="-3840.0544" r="37.8742" gradientTransform="matrix(0.0519 -0.9986 0.9986 0.0519 3693.2766 3898.9636)" gradientUnits="userSpaceOnUse">
		<stop  offset="0" style="stop-color:#F9B314"/>
		<stop  offset="1" style="stop-color:#EC5222"/>
	</radialGradient>
	<path class="st6" d="M90.1,52.81c3.88,9.14,5.5,17.3,4.26,22.43c0.03-0.02,0.06-0.04,0.08-0.06c1.26-5.09-0.46-13.27-4.34-22.38
		C90.1,52.8,90.1,52.81,90.1,52.81z"/>
	
		<radialGradient id="SVGID_6_" cx="3649.6702" cy="-3840.0466" r="37.8663" gradientTransform="matrix(0.0519 -0.9986 0.9986 0.0519 3693.2766 3898.9636)" gradientUnits="userSpaceOnUse">
		<stop  offset="0" style="stop-color:#F9B314"/>
		<stop  offset="1" style="stop-color:#EC5222"/>
	</radialGradient>
	<path class="st7" d="M87.77,47.73c0.39,0.78,0.75,1.55,1.11,2.32C88.52,49.28,88.15,48.5,87.77,47.73z"/>
	
		<linearGradient id="SVGID_7_" gradientUnits="userSpaceOnUse" x1="3620.2371" y1="-3798.4727" x2="3674.187" y2="-3798.4727" gradientTransform="matrix(0.0519 -0.9986 0.9986 0.0519 3693.2766 3898.9636)">
		<stop  offset="0" style="stop-color:#FCBA39"/>
		<stop  offset="1" style="stop-color:#D96D2D"/>
	</linearGradient>
	<path class="st8" d="M90,52.55c-0.01-0.02-0.02-0.05-0.03-0.07c-0.11-0.26-0.23-0.52-0.35-0.78C89.74,51.98,89.87,52.27,90,52.55z"
		/>
	
		<radialGradient id="SVGID_8_" cx="3649.6729" cy="-3839.999" r="37.8242" gradientTransform="matrix(0.0519 -0.9986 0.9986 0.0519 3693.2766 3898.9636)" gradientUnits="userSpaceOnUse">
		<stop  offset="0" style="stop-color:#F9B314"/>
		<stop  offset="1" style="stop-color:#EC5222"/>
	</radialGradient>
	<path class="st9" d="M90,52.55c-0.01-0.02-0.02-0.05-0.03-0.07c-0.11-0.26-0.23-0.52-0.35-0.78C89.74,51.98,89.87,52.27,90,52.55z"
		/>
	
		<linearGradient id="SVGID_9_" gradientUnits="userSpaceOnUse" x1="3620.198" y1="-3802.9902" x2="3674.2141" y2="-3802.9902" gradientTransform="matrix(0.0519 -0.9986 0.9986 0.0519 3693.2766 3898.9636)">
		<stop  offset="0" style="stop-color:#FCBA39"/>
		<stop  offset="1" style="stop-color:#D96D2D"/>
	</linearGradient>
	<path class="st10" d="M84.07,72.54c0.13-0.14,0.24-0.28,0.33-0.42C84.31,72.26,84.19,72.4,84.07,72.54z"/>
	
		<radialGradient id="SVGID_10_" cx="3649.6699" cy="-3840.1255" r="37.9372" gradientTransform="matrix(0.0519 -0.9986 0.9986 0.0519 3693.2766 3898.9636)" gradientUnits="userSpaceOnUse">
		<stop  offset="0" style="stop-color:#F9B314"/>
		<stop  offset="1" style="stop-color:#EC5222"/>
	</radialGradient>
	<path class="st11" d="M84.07,72.54c0.13-0.14,0.24-0.28,0.33-0.42C84.31,72.26,84.19,72.4,84.07,72.54z"/>
	
		<linearGradient id="SVGID_11_" gradientUnits="userSpaceOnUse" x1="3620.2" y1="-3818.459" x2="3674.208" y2="-3818.459" gradientTransform="matrix(0.0519 -0.9986 0.9986 0.0519 3693.2766 3898.9636)">
		<stop  offset="0" style="stop-color:#FCBA39"/>
		<stop  offset="1" style="stop-color:#D96D2D"/>
	</linearGradient>
	<path class="st12" d="M90.1,52.81c2.69,15.77-3.74,18.88-7.09,20.63c0.01-0.01,0.02-0.02,0.03-0.03c-2.89,1.97-9.1,3.21-16.93,3.25
		c-10.92-1.12-17.94-2.45-23.39-4.19c0.07,1.16,0.21,2.33,0.46,3.5c0.1,0.45,0.21,0.9,0.33,1.34c21.44,5.76,44.7,3.04,50.84-2.08
		C95.6,70.11,93.98,61.95,90.1,52.81z"/>
	
		<linearGradient id="SVGID_12_" gradientUnits="userSpaceOnUse" x1="3620.3047" y1="-3803.4109" x2="3673.8904" y2="-3803.4109" gradientTransform="matrix(0.0519 -0.9986 0.9986 0.0519 3693.2766 3898.9636)">
		<stop  offset="0" style="stop-color:#FCBA39"/>
		<stop  offset="1" style="stop-color:#D96D2D"/>
	</linearGradient>
	<path class="st13" d="M83.67,72.92c0.08-0.07,0.16-0.14,0.23-0.21C83.83,72.78,83.75,72.85,83.67,72.92z"/>
	
		<radialGradient id="SVGID_13_" cx="3649.5417" cy="-3839.7405" r="37.5534" gradientTransform="matrix(0.0519 -0.9986 0.9986 0.0519 3693.2766 3898.9636)" gradientUnits="userSpaceOnUse">
		<stop  offset="0" style="stop-color:#F9B314"/>
		<stop  offset="1" style="stop-color:#EC5222"/>
	</radialGradient>
	<path class="st14" d="M83.67,72.92c0.08-0.07,0.16-0.14,0.23-0.21C83.83,72.78,83.75,72.85,83.67,72.92z"/>
	
		<linearGradient id="SVGID_14_" gradientUnits="userSpaceOnUse" x1="3620.2305" y1="-3800.1028" x2="3674.1921" y2="-3800.1028" gradientTransform="matrix(0.0519 -0.9986 0.9986 0.0519 3693.2766 3898.9636)">
		<stop  offset="0" style="stop-color:#FCBA39"/>
		<stop  offset="1" style="stop-color:#D96D2D"/>
	</linearGradient>
	<path class="st15" d="M88.88,50.05c-0.36-0.77-0.72-1.54-1.11-2.32c0.4,0.8,0.78,1.6,1.15,2.39C88.9,50.1,88.89,50.07,88.88,50.05z
		"/>
	
		<radialGradient id="SVGID_15_" cx="3649.6726" cy="-3840.0818" r="37.8979" gradientTransform="matrix(0.0519 -0.9986 0.9986 0.0519 3693.2766 3898.9636)" gradientUnits="userSpaceOnUse">
		<stop  offset="0" style="stop-color:#F9B314"/>
		<stop  offset="1" style="stop-color:#EC5222"/>
	</radialGradient>
	<path class="st16" d="M88.88,50.05c-0.36-0.77-0.72-1.54-1.11-2.32c0.4,0.8,0.78,1.6,1.15,2.39C88.9,50.1,88.89,50.07,88.88,50.05z
		"/>
	
		<linearGradient id="SVGID_16_" gradientUnits="userSpaceOnUse" x1="3663.2129" y1="-3799.6897" x2="3646.3193" y2="-3796.874" gradientTransform="matrix(0.0519 -0.9986 0.9986 0.0519 3693.2766 3898.9636)">
		<stop  offset="0" style="stop-color:#F0584B"/>
		<stop  offset="1" style="stop-color:#C73F3D"/>
	</linearGradient>
	<path class="st17" d="M90.1,52.8c0,0,0-0.01,0-0.01c-0.03-0.07-0.07-0.15-0.1-0.22c0,0.01,0,0.01,0,0.02
		C90.04,52.66,90.07,52.72,90.1,52.8z"/>
	
		<linearGradient id="SVGID_17_" gradientUnits="userSpaceOnUse" x1="3663.1333" y1="-3800.4307" x2="3646.1597" y2="-3797.6016" gradientTransform="matrix(0.0519 -0.9986 0.9986 0.0519 3693.2766 3898.9636)">
		<stop  offset="0" style="stop-color:#F0584B"/>
		<stop  offset="1" style="stop-color:#C73F3D"/>
	</linearGradient>
	<path class="st18" d="M89.14,50.62c-0.06-0.14-0.12-0.28-0.19-0.42c0.04,0.07,0.07,0.15,0.1,0.22
		C89.08,50.49,89.11,50.55,89.14,50.62z"/>
	
		<linearGradient id="SVGID_18_" gradientUnits="userSpaceOnUse" x1="3661.7258" y1="-3808.531" x2="3644.7825" y2="-3805.707" gradientTransform="matrix(0.0519 -0.9986 0.9986 0.0519 3693.2766 3898.9636)">
		<stop  offset="0" style="stop-color:#F0584B"/>
		<stop  offset="1" style="stop-color:#C73F3D"/>
	</linearGradient>
	<path class="st19" d="M83.04,73.41c0.23-0.16,0.44-0.32,0.63-0.48C83.48,73.09,83.28,73.25,83.04,73.41z"/>
	
		<linearGradient id="SVGID_19_" gradientUnits="userSpaceOnUse" x1="3662.2124" y1="-3807.9189" x2="3645.041" y2="-3805.0571" gradientTransform="matrix(0.0519 -0.9986 0.9986 0.0519 3693.2766 3898.9636)">
		<stop  offset="0" style="stop-color:#F0584B"/>
		<stop  offset="1" style="stop-color:#C73F3D"/>
	</linearGradient>
	<path class="st20" d="M83.9,72.71c0.06-0.06,0.11-0.12,0.16-0.17C84.01,72.59,83.96,72.65,83.9,72.71z"/>
	
		<linearGradient id="SVGID_20_" gradientUnits="userSpaceOnUse" x1="3620.1892" y1="-3799.3938" x2="3674.2117" y2="-3799.3938" gradientTransform="matrix(0.0519 -0.9986 0.9986 0.0519 3693.2766 3898.9636)">
		<stop  offset="0" style="stop-color:#FCBA39"/>
		<stop  offset="1" style="stop-color:#D96D2D"/>
	</linearGradient>
	<path class="st21" d="M89.05,50.42c-0.03-0.07-0.06-0.15-0.1-0.22c-0.01-0.03-0.02-0.05-0.04-0.08
		C88.96,50.22,89,50.32,89.05,50.42z"/>
	
		<linearGradient id="SVGID_21_" gradientUnits="userSpaceOnUse" x1="3663.116" y1="-3800.4758" x2="3646.1628" y2="-3797.6504" gradientTransform="matrix(0.0519 -0.9986 0.9986 0.0519 3693.2766 3898.9636)">
		<stop  offset="0" style="stop-color:#F0584B"/>
		<stop  offset="1" style="stop-color:#C73F3D"/>
	</linearGradient>
	<path class="st22" d="M89.05,50.42c-0.03-0.07-0.06-0.15-0.1-0.22c-0.01-0.03-0.02-0.05-0.04-0.08
		C88.96,50.22,89,50.32,89.05,50.42z"/>
	
		<linearGradient id="SVGID_22_" gradientUnits="userSpaceOnUse" x1="3618.4878" y1="-3798.2554" x2="3675.2002" y2="-3798.2554" gradientTransform="matrix(0.0519 -0.9986 0.9986 0.0519 3693.2766 3898.9636)">
		<stop  offset="0" style="stop-color:#FCBA39"/>
		<stop  offset="1" style="stop-color:#D96D2D"/>
	</linearGradient>
	<path class="st23" d="M90.01,52.58c0-0.01,0-0.01,0-0.02c0,0,0-0.01-0.01-0.01C90,52.56,90,52.57,90.01,52.58z"/>
	
		<linearGradient id="SVGID_23_" gradientUnits="userSpaceOnUse" x1="3663.7075" y1="-3799.8093" x2="3645.8542" y2="-3796.8337" gradientTransform="matrix(0.0519 -0.9986 0.9986 0.0519 3693.2766 3898.9636)">
		<stop  offset="0" style="stop-color:#F0584B"/>
		<stop  offset="1" style="stop-color:#C73F3D"/>
	</linearGradient>
	<path class="st24" d="M90.01,52.58c0-0.01,0-0.01,0-0.02c0,0,0-0.01-0.01-0.01C90,52.56,90,52.57,90.01,52.58z"/>
	
		<radialGradient id="SVGID_24_" cx="3649.6687" cy="-3840.071" r="37.8891" gradientTransform="matrix(0.0519 -0.9986 0.9986 0.0519 3693.2766 3898.9636)" gradientUnits="userSpaceOnUse">
		<stop  offset="0" style="stop-color:#F9B314"/>
		<stop  offset="1" style="stop-color:#EC5222"/>
	</radialGradient>
	<path class="st25" d="M89.62,51.7c-0.16-0.36-0.31-0.72-0.48-1.08c-0.03-0.07-0.06-0.13-0.09-0.2
		C89.24,50.85,89.43,51.27,89.62,51.7z"/>
	
		<linearGradient id="SVGID_25_" gradientUnits="userSpaceOnUse" x1="3663.1648" y1="-3800.2195" x2="3646.1963" y2="-3797.3914" gradientTransform="matrix(0.0519 -0.9986 0.9986 0.0519 3693.2766 3898.9636)">
		<stop  offset="0" style="stop-color:#F0584B"/>
		<stop  offset="1" style="stop-color:#C73F3D"/>
	</linearGradient>
	<path class="st26" d="M89.62,51.7c-0.16-0.36-0.31-0.72-0.48-1.08c-0.03-0.07-0.06-0.13-0.09-0.2
		C89.24,50.85,89.43,51.27,89.62,51.7z"/>
	
		<radialGradient id="SVGID_26_" cx="3649.6907" cy="-3840.6956" r="38.444" gradientTransform="matrix(0.0519 -0.9986 0.9986 0.0519 3693.2766 3898.9636)" gradientUnits="userSpaceOnUse">
		<stop  offset="0" style="stop-color:#F9B314"/>
		<stop  offset="1" style="stop-color:#EC5222"/>
	</radialGradient>
	<path class="st27" d="M90.1,52.81c0,0,0-0.01,0-0.01c-0.03-0.07-0.06-0.14-0.09-0.21C90.04,52.66,90.07,52.73,90.1,52.81z"/>
	
		<linearGradient id="SVGID_27_" gradientUnits="userSpaceOnUse" x1="3663.1978" y1="-3799.6853" x2="3646.3308" y2="-3796.8743" gradientTransform="matrix(0.0519 -0.9986 0.9986 0.0519 3693.2766 3898.9636)">
		<stop  offset="0" style="stop-color:#F0584B"/>
		<stop  offset="1" style="stop-color:#C73F3D"/>
	</linearGradient>
	<path class="st28" d="M90.1,52.81c0,0,0-0.01,0-0.01c-0.03-0.07-0.06-0.14-0.09-0.21C90.04,52.66,90.07,52.73,90.1,52.81z"/>
	
		<linearGradient id="SVGID_28_" gradientUnits="userSpaceOnUse" x1="3620.199" y1="-3800.7986" x2="3674.2043" y2="-3800.7986" gradientTransform="matrix(0.0519 -0.9986 0.9986 0.0519 3693.2766 3898.9636)">
		<stop  offset="0" style="stop-color:#FCBA39"/>
		<stop  offset="1" style="stop-color:#D96D2D"/>
	</linearGradient>
	<path class="st29" d="M90.1,52.81c-0.03-0.08-0.06-0.15-0.1-0.23c0-0.01-0.01-0.02-0.01-0.03c-0.12-0.28-0.25-0.57-0.38-0.85
		c-0.19-0.42-0.37-0.85-0.57-1.28c-0.05-0.1-0.09-0.2-0.14-0.3c-0.37-0.79-0.75-1.59-1.15-2.39c-1.19,3.79-2.66,7.69-4.36,11.59
		c1.96,5.95,2.38,10.65,1.04,12.71l-0.05,0.08c-0.09,0.15-0.21,0.29-0.33,0.42c-0.05,0.06-0.11,0.12-0.16,0.17
		c-0.07,0.07-0.15,0.14-0.23,0.21c-0.19,0.17-0.4,0.33-0.63,0.48c-0.01,0.01-0.02,0.02-0.03,0.03
		C86.36,71.69,92.79,68.58,90.1,52.81z"/>
	
		<radialGradient id="SVGID_29_" cx="3649.6653" cy="-3840.0667" r="37.8849" gradientTransform="matrix(0.0519 -0.9986 0.9986 0.0519 3693.2766 3898.9636)" gradientUnits="userSpaceOnUse">
		<stop  offset="0" style="stop-color:#F9B314"/>
		<stop  offset="1" style="stop-color:#EC5222"/>
	</radialGradient>
	<path class="st30" d="M90.1,52.81c-0.03-0.08-0.06-0.15-0.1-0.23c0-0.01-0.01-0.02-0.01-0.03c-0.12-0.28-0.25-0.57-0.38-0.85
		c-0.19-0.42-0.37-0.85-0.57-1.28c-0.05-0.1-0.09-0.2-0.14-0.3c-0.37-0.79-0.75-1.59-1.15-2.39c-1.19,3.79-2.66,7.69-4.36,11.59
		c1.96,5.95,2.38,10.65,1.04,12.71l-0.05,0.08c-0.09,0.15-0.21,0.29-0.33,0.42c-0.05,0.06-0.11,0.12-0.16,0.17
		c-0.07,0.07-0.15,0.14-0.23,0.21c-0.19,0.17-0.4,0.33-0.63,0.48c-0.01,0.01-0.02,0.02-0.03,0.03
		C86.36,71.69,92.79,68.58,90.1,52.81z"/>
	<path class="st2" d="M89.06,50.44c0-0.01-0.01-0.01-0.01-0.02c-0.05-0.1-0.09-0.2-0.14-0.3c-0.01-0.02-0.02-0.03-0.02-0.05
		c-0.36-0.78-0.73-1.56-1.12-2.34c-1.19,3.79-2.66,7.69-4.36,11.59c1.96,5.95,2.38,10.65,1.04,12.71l-0.05,0.08
		c-0.09,0.15-0.21,0.29-0.33,0.42c-0.05,0.06-0.1,0.11-0.16,0.17c-0.06,0.06-0.13,0.13-0.2,0.19c-0.01,0.01-0.02,0.02-0.04,0.03
		c-0.19,0.16-0.39,0.32-0.62,0.48c-0.01,0-0.01,0.01-0.01,0.01c-0.15,0.1-0.32,0.21-0.5,0.31c-0.04,0.02-0.09,0.05-0.13,0.08
		c-0.17,0.09-0.34,0.19-0.53,0.28c-0.06,0.03-0.12,0.06-0.18,0.09c-0.19,0.09-0.37,0.17-0.57,0.26c-0.07,0.03-0.14,0.05-0.2,0.08
		c-0.21,0.08-0.42,0.17-0.64,0.25c-0.01,0-0.02,0-0.02,0.01c-0.43,0.16-0.9,0.3-1.39,0.43c-0.15,0.04-0.3,0.09-0.46,0.13
		c-0.17,0.04-0.34,0.08-0.51,0.13c-0.21,0.05-0.41,0.1-0.63,0.15c-0.15,0.03-0.31,0.06-0.47,0.1c-0.25,0.05-0.51,0.1-0.78,0.15
		c-0.13,0.02-0.27,0.05-0.4,0.07c-0.34,0.06-0.68,0.11-1.02,0.16c-0.08,0.01-0.15,0.02-0.23,0.04c-1.86,0.26-3.91,0.44-6.11,0.51
		c0,0,0,0,0,0c-0.56,0.02-1.12,0.03-1.7,0.04c1.09-1.28,2.16-2.59,3.22-3.95c11.01-14.49,16.7-33.6,17.63-46.33
		c1.38,0.41,2.72,0.85,4,1.36c0.07-5-0.82-8.93-2.83-11.12c-3.02-3.41-10.36-4.65-19.62-3.96c-0.09,0.01-0.18,0.02-0.28,0.02
		c-0.54,0.04-1.08,0.09-1.63,0.15c-0.15,0.02-0.31,0.03-0.46,0.05c-0.54,0.06-1.08,0.12-1.63,0.19c-0.12,0.01-0.25,0.03-0.37,0.05
		c-0.65,0.09-1.31,0.18-1.98,0.28c-0.19,0.03-0.38,0.06-0.56,0.09c-0.47,0.08-0.95,0.15-1.43,0.24c-0.28,0.05-0.56,0.1-0.83,0.15
		c-0.4,0.07-0.8,0.15-1.21,0.23c-0.18,0.04-0.36,0.07-0.55,0.1c0,0,0,0,0.01,0c-5.01,1.01-10.26,2.44-15.49,4.28
		c-0.57,0.16-1.13,0.32-1.71,0.5C24.46,24.3,9.87,33.04,3.74,40.83c-0.02,0.02-0.03,0.04-0.05,0.06c-1.2,1.54-2.07,3.03-2.56,4.46
		c-0.01,0.02-0.01,0.03-0.02,0.05C1,45.74,0.91,46.08,0.83,46.41c0,0.02-0.01,0.03-0.01,0.05c-0.08,0.4-0.15,0.79-0.16,1.17
		C0.39,52.21,4.74,58.31,11.84,64.4c-0.15-0.96-0.23-1.92-0.23-2.88c5.95,4.46,13.88,8.96,22.68,12.71c3,1.23,6.1,2.24,9.23,3.08
		c0,0.01,0,0.01,0,0.01c0.41,0.11,0.81,0.21,1.22,0.31c0.15,0.04,0.3,0.07,0.45,0.11c-0.56-0.14-1.11-0.28-1.67-0.43
		c0.54,1.94,1.32,3.77,2.31,5.47c1.64,0.43,3.29,0.8,4.93,1.12c-5.25,3.44-9.68,5.07-12.03,4.31l-0.09-0.03
		c-2.04-0.66-4.31-3.73-6.33-8.39c-3.1-0.87-6.06-1.85-8.85-2.91c-0.48-0.15-0.95-0.29-1.42-0.44c3.23,11.5,8.06,20.03,13.23,21.8
		c4.95,1.46,14.05-4.01,23.47-13.17c16.62,1.62,31.34-1.86,34.61-7.22c0.45-0.75,0.79-1.63,1.02-2.62
		c-0.21,0.17-0.44,0.34-0.68,0.51c0.25-0.17,0.48-0.34,0.68-0.51c0,0,0,0,0,0c0.02-0.02,0.06-0.04,0.08-0.06
		C95.81,69.65,93.67,60.48,89.06,50.44z M91.45,76.96c0.3-0.13,0.58-0.27,0.85-0.41c-0.66,0.34-1.41,0.66-2.23,0.97
		c0.29-0.11,0.58-0.22,0.85-0.34C91.1,77.1,91.28,77.03,91.45,76.96z M88.15,78.16c0.15-0.05,0.29-0.09,0.43-0.14
		c0.33-0.1,0.65-0.21,0.96-0.31c-0.88,0.31-1.83,0.59-2.85,0.86C87.19,78.44,87.68,78.3,88.15,78.16z M86.25,78.67
		c0.08-0.02,0.16-0.04,0.24-0.06c-0.53,0.14-1.09,0.26-1.66,0.39c0.04-0.01,0.08-0.02,0.12-0.03
		C85.39,78.88,85.83,78.78,86.25,78.67z M84.5,79.07c-1.26,0.26-2.61,0.49-4.02,0.69c0.08-0.01,0.17-0.02,0.25-0.03
		C82.06,79.54,83.32,79.32,84.5,79.07z M78.43,80.02c0.68-0.08,1.34-0.16,1.99-0.25c-0.66,0.09-1.34,0.18-2.03,0.25
		C78.4,80.03,78.42,80.02,78.43,80.02z M78.36,80.03c-1.48,0.16-3.03,0.29-4.63,0.37C75.33,80.32,76.88,80.19,78.36,80.03z
		 M23.26,62.55c-4.5-3.31-7.96-6.63-9.98-9.45c-0.15-0.2-0.29-0.4-0.42-0.6c-0.04-0.05-0.07-0.1-0.1-0.16
		c-0.36-0.56-0.66-1.1-0.89-1.61c-0.05-0.11-0.1-0.22-0.15-0.33c-0.05-0.11-0.08-0.22-0.12-0.33c-0.04-0.12-0.08-0.24-0.12-0.36
		c-0.03-0.1-0.06-0.19-0.08-0.28c-0.03-0.13-0.06-0.26-0.08-0.39c-0.01-0.07-0.03-0.15-0.03-0.22c-0.02-0.2-0.03-0.39-0.02-0.57
		l0-0.09c0.01-0.16,0.03-0.33,0.07-0.5c0.01-0.05,0.02-0.11,0.04-0.16c0.03-0.13,0.07-0.25,0.11-0.38c0.02-0.06,0.04-0.12,0.06-0.18
		c0.06-0.18,0.14-0.36,0.22-0.54c0.02-0.05,0.05-0.1,0.08-0.15c0.07-0.14,0.14-0.28,0.23-0.42c0.05-0.08,0.1-0.17,0.15-0.26
		c0.07-0.11,0.14-0.23,0.22-0.34c0.06-0.09,0.12-0.19,0.19-0.28c0.09-0.13,0.19-0.26,0.3-0.4c0.13-0.17,0.26-0.33,0.4-0.51
		c0.07-0.08,0.14-0.17,0.21-0.25c0.12-0.13,0.23-0.27,0.36-0.4c0.06-0.06,0.12-0.13,0.18-0.2c0.46-0.5,0.98-1.01,1.54-1.53
		c0.02-0.02,0.04-0.04,0.06-0.06c0.2-0.19,0.41-0.37,0.63-0.56c0,0,0,0,0.01,0c0.44-0.39,0.92-0.78,1.41-1.17c0,0,0,0,0,0
		c1.4-1.11,2.99-2.24,4.75-3.36c20.07-9.56,32.6-12.33,42.32-14.81c1.14-0.13,2.24-0.22,3.29-0.28c0,0,0,0,0,0
		c2.34-0.13,4.46-0.11,6.27,0.08c0.01,0,0.02,0,0.02,0c0.3,0.03,0.58,0.06,0.86,0.1c0.01,0,0.02,0,0.03,0
		c0.84,0.12,1.61,0.27,2.29,0.46c0.01,0,0.02,0,0.02,0c0.16,0.05,0.3,0.1,0.45,0.14c0.09,0.03,0.19,0.06,0.28,0.09
		c0.12,0.04,0.24,0.09,0.36,0.14c0.1,0.04,0.21,0.08,0.3,0.13c0.1,0.05,0.2,0.09,0.29,0.14c0.1,0.05,0.2,0.11,0.3,0.16
		c0.08,0.05,0.16,0.09,0.23,0.14c0.1,0.07,0.2,0.14,0.29,0.21c0.05,0.04,0.11,0.08,0.16,0.12c0.14,0.12,0.27,0.23,0.38,0.36
		l0.07,0.07c0.14,0.16,0.28,0.34,0.4,0.55c0,0,0,0,0,0c0.12,0.2,0.23,0.42,0.34,0.66c1.35,3.16,1,9.71-1.08,17.62
		C72.52,63.23,67.91,68.4,60.13,75.97C39.53,73.35,35.18,69.53,23.26,62.55z M56.23,79.77c-2.68-0.33-5.39-0.78-8.1-1.36
		c0.78,0.17,1.57,0.32,2.36,0.47c0.12,0.02,0.25,0.05,0.38,0.07C52.66,79.28,54.45,79.55,56.23,79.77
		C56.23,79.77,56.23,79.77,56.23,79.77z M45.29,77.77c0.84,0.21,1.69,0.4,2.54,0.59c0.07,0.01,0.13,0.03,0.2,0.04
		C47.12,78.2,46.2,77.99,45.29,77.77z M63.26,80.4L63.26,80.4c1.8,0.1,3.56,0.14,5.28,0.15c0.02,0,0.05,0,0.07,0
		c1.69,0,3.34-0.04,4.95-0.13C70.31,80.58,66.85,80.59,63.26,80.4z M92.52,76.43c0.08-0.04,0.16-0.08,0.23-0.12
		c0.18-0.1,0.36-0.21,0.53-0.31c0.04-0.02,0.07-0.04,0.1-0.07C93.11,76.1,92.83,76.27,92.52,76.43z"/>
	<path class="st0" d="M87.77,47.73c-1.19,3.79-2.66,7.69-4.36,11.59c1.96,5.95,2.38,10.65,1.04,12.71l-0.05,0.08
		c-1.75,2.71-8.85,4.51-18.28,4.55c-20-2.05-26.92-4.81-35.04-9.48c-1.89-1.09-3.86-2.29-6.07-3.6c-0.57-0.34-1.15-0.68-1.75-1.03
		c-3.67-2.7-6.64-5.41-8.72-7.85c0,0,0,0,0,0c-2.18-2.56-3.36-4.83-3.28-6.47l0-0.09c0.11-2.15,2.48-5.13,6.46-8.29
		c0.05-3.78,0.28-7.43,0.68-10.86C7.99,35.17,0.9,42.15,0.66,47.64c-0.41,6.78,9.35,16.91,23.15,25.39
		c0.01,0.01,0.02,0.02,0.04,0.02c0.7,0.43,1.42,0.86,2.14,1.28c0.07,0.04,0.15,0.09,0.22,0.13c0.75,0.43,1.5,0.86,2.26,1.29
		c0.03,0.02,0.06,0.03,0.09,0.05c0.69,0.38,1.39,0.76,2.1,1.13c0.16,0.09,0.33,0.17,0.49,0.26c0.75,0.39,1.5,0.77,2.26,1.14
		c0.1,0.05,0.2,0.09,0.29,0.13c24.17,11.26,54.86,6.88,59.63-0.6C96.78,72.64,94.19,60.69,87.77,47.73z"/>
	<path class="st31" d="M38.73,88.21l-0.09-0.03c-3.07-1-6.64-7.38-9.12-16.49c-4.14-25.68-1.45-30.52,2.54-45.04
		c3.4-8.71,7.59-14.62,10.72-15.29l0.09-0.02c2.1-0.45,5.6,1.07,9.68,4.1c3.67-0.93,7.25-1.65,10.67-2.15
		C54.55,4.82,45.97-0.23,40.61,0.96c-8.12,1.66-17.13,19.23-21.16,39.58c-4.77,26.35,6.92,55.06,15.96,57.76
		c5.98,1.79,16.8-3.62,27.66-13.17c-3.97-0.16-8.12-0.57-12.33-1.21C45.5,87.35,41.07,88.97,38.73,88.21z"/>
	<path class="st31" d="M40.76,0.94c-7,1.69-14.25,19.07-17.13,39.38c-3.21,25.28,7.16,53.2,14.65,58.35
		c6.2-0.12,15.5-5.37,24.79-13.55c-3.97-0.16-8.12-0.57-12.33-1.21c-5.23,3.44-9.67,5.06-12.01,4.3l-0.09-0.03
		c-3.07-1-6.64-7.38-9.12-16.49c-4.14-25.68-1.45-30.52,2.54-45.04c3.4-8.71,7.59-14.62,10.72-15.29l0.09-0.02
		c2.1-0.45,5.6,1.07,9.68,4.1c3.12-0.79,6.18-1.42,9.13-1.9c0.49-0.11,0.97-0.23,1.45-0.33C54.57,4.86,46.12-0.12,40.76,0.94z"/>
	<path class="st2" d="M58.79,88.69c1.42-1.11,2.85-2.3,4.28-3.56c-3.97-0.16-8.12-0.57-12.33-1.21c-5.23,3.44-9.67,5.06-12.01,4.3
		l-0.09-0.03c-0.53-0.17-1.08-0.52-1.64-1C39.56,89.97,44.22,95.38,58.79,88.69z"/>
	<path class="st0" d="M63.12,13.21c-0.01-0.01-0.03-0.03-0.04-0.04c-3.62-3.25-9.55-4.71-15.72-3.39c-1.78,0.38-3.44,0.97-4.96,1.71
		c0.12-0.04,0.25-0.09,0.37-0.12l0.09-0.02c2.1-0.45,5.6,1.07,9.68,4.1c3.12-0.79,6.18-1.42,9.13-1.9
		C62.16,13.43,62.64,13.31,63.12,13.21z"/>
</g>
</svg>
