<?xml version="1.0" encoding="iso-8859-1"?>
<!-- Generator: Adobe Illustrator 19.0.0, SVG Export Plug-In . SVG Version: 6.00 Build 0)  -->
<svg version="1.1" id="Capa_1" xmlns="http://www.w3.org/2000/svg" xmlns:xlink="http://www.w3.org/1999/xlink" x="0px" y="0px"
	 viewBox="0 0 512 512" style="enable-background:new 0 0 512 512;" xml:space="preserve">
<g>
	<g>
		<path d="M407,241c-41.353,0-75,33.647-75,75c0,41.353,33.647,75,75,75c41.353,0,75-33.647,75-75C482,274.647,448.353,241,407,241z
			"/>
	</g>
</g>
<g>
	<g>
		<path d="M105,0C63.647,0,30,34.647,30,76c0,41.353,33.647,75,75,75s75-33.647,75-75C180,34.647,146.353,0,105,0z"/>
	</g>
</g>
<g>
	<g>
		<path d="M480.521,129.496C478.016,124.311,472.771,121,467,121h-15.835C443.68,53.588,386.375,0,317,0h-61
			c-8.291,0-15,6.709-15,15s6.709,15,15,15c52.808,0,97.636,40.185,104.931,91H347c-5.771,0-11.016,3.311-13.521,8.496
			c-2.49,5.2-1.802,11.367,1.802,15.879l60,75c2.856,3.56,7.163,5.625,11.719,5.625c4.556,0,8.862-2.065,11.719-5.625l60-75
			C482.323,140.863,483.011,134.696,480.521,129.496z"/>
	</g>
</g>
<g>
	<g>
		<path d="M256,482c-52.808,0-97.636-40.185-104.931-91H165c5.771,0,11.016-3.311,13.521-8.496c2.49-5.2,1.802-11.367-1.802-15.879
			l-60-75c-5.713-7.119-17.725-7.119-23.438,0l-60,75c-3.604,4.512-4.292,10.679-1.802,15.879C33.984,387.689,39.229,391,45,391
			h15.835C68.32,458.412,125.625,512,195,512h61c8.291,0,15-6.709,15-15C271,488.709,264.291,482,256,482z"/>
	</g>
</g>
<g>
	<g>
		<path d="M480.251,391c-18.938,18.499-44.752,30-73.251,30c-28.499,0-54.313-11.501-73.251-30C314.217,410.08,302,437.608,302,467
			v30c0,8.291,6.709,15,15,15h180c8.291,0,15-6.709,15-15v-30C512,437.608,499.783,410.08,480.251,391z"/>
	</g>
</g>
<g>
	<g>
		<path d="M178.251,151c-18.939,18.499-44.753,30-73.251,30c-28.498,0-54.313-11.501-73.251-30C12.217,170.08,0,196.608,0,226v30
			c0,8.291,6.709,15,15,15h180c8.291,0,15-6.709,15-15v-30C210,196.608,197.783,170.08,178.251,151z"/>
	</g>
</g>
<g>
</g>
<g>
</g>
<g>
</g>
<g>
</g>
<g>
</g>
<g>
</g>
<g>
</g>
<g>
</g>
<g>
</g>
<g>
</g>
<g>
</g>
<g>
</g>
<g>
</g>
<g>
</g>
<g>
</g>
</svg>
