<svg height="557pt" viewBox="-17 -23 557.33331 557" width="557pt" xmlns="http://www.w3.org/2000/svg"><path d="m226.699219 374.21875h-133.714844c-13.257813.019531-24 10.753906-24.015625 24.011719v87.503906c.011719 8.609375-2.671875 17.007813-7.664062 24.015625h165.394531c13.253906-.015625 23.996093-10.757812 24.007812-24.015625v-87.503906c-.011719-13.257813-10.753906-23.992188-24.007812-24.011719zm0 0"/><path d="m92.984375 356.71875h117.460937c-1.09375-12.398438-11.46875-21.921875-23.921874-21.933594h-36.480469c-4.753907-.007812-9.292969-2.007812-12.5-5.515625l-22.308594-24.402343c-4.550781-4.972657-10.980469-7.808594-17.71875-7.8125h-73.5c-13.257813.015624-24 10.757812-24.015625 24.011718v164.667969c.015625 13.257813 10.757812 24 24.015625 24.015625h3.445313c13.25-.015625 23.992187-10.757812 24.007812-24.015625v-87.503906c.023438-22.914063 18.59375-41.484375 41.515625-41.511719zm0 0"/><path d="m498.484375 76.90625h-133.714844c-13.25.015625-23.992187 10.757812-24.007812 24.015625v87.507813c.011719 8.605468-2.671875 17.003906-7.667969 24.011718h165.390625c13.257813-.015625 24-10.757812 24.015625-24.011718v-87.507813c-.015625-13.257813-10.757812-24-24.015625-24.015625zm0 0"/><path d="m295.800781 212.441406h3.449219c13.253906-.015625 23.996094-10.757812 24.011719-24.011718v-87.507813c.023437-22.914063 18.59375-41.484375 41.507812-41.515625h117.464844c-1.097656-12.394531-11.472656-21.90625-23.921875-21.921875h-36.476562c-4.757813-.011719-9.292969-2.007813-12.5-5.511719l-22.3125-24.410156c-4.558594-4.972656-10.984376-7.804688-17.726563-7.8125h-73.5c-13.253906.015625-23.996094 10.757812-24.007813 24.011719v164.667969c.011719 13.257812 10.753907 24 24.011719 24.011718zm0 0"/><path d="m415.84375 332.074219v-107.707031c0-4.832032-3.914062-8.75-8.75-8.75-4.832031 0-8.75 3.917968-8.75 8.75v107.707031c-18.6875 3.695312-33.027344 18.992187-34.570312 37.710937h-109.457032c-4.828125 0-8.75 3.914063-8.75 8.75 0 4.832032 3.921875 8.75 8.75 8.75h111.859375c6.539063 16.859375 22.832031 27.914063 40.917969 27.757813 23.976562 0 43.472656-18.800781 43.472656-41.910157 0-20.222656-14.925781-37.144531-34.722656-41.058593zm-8.75 65.46875c-14.320312 0-25.976562-10.953125-25.976562-24.410157 0-13.460937 11.65625-24.410156 25.976562-24.410156s25.972656 10.949219 25.972656 24.410156c0 13.457032-11.652344 24.410157-25.972656 24.410157zm0 0"/><path d="m106.507812 294.75c4.835938 0 8.75-3.917969 8.75-8.75v-116.953125c18.71875-1.542969 34.007813-15.882813 37.707032-34.570313h107.707031c4.832031 0 8.75-3.921874 8.75-8.75 0-4.835937-3.917969-8.75-8.75-8.75h-107.707031c-3.910156-19.796874-20.835938-34.726562-41.054688-34.726562-23.113281 0-41.910156 19.5-41.910156 43.476562-.15625 18.082032 10.898438 34.375 27.757812 40.917969v119.355469c0 4.832031 3.917969 8.75 8.75 8.75zm-19.007812-169.023438c0-14.328124 10.953125-25.976562 24.410156-25.976562 13.457032 0 24.410156 11.648438 24.410156 25.976562 0 14.320313-10.949218 25.972657-24.410156 25.972657-13.464844 0-24.410156-11.652344-24.410156-25.972657zm0 0"/></svg>