<svg id="Capa_1" enable-background="new 0 0 512.021 512.021" height="512" viewBox="0 0 512.021 512.021" width="512" xmlns="http://www.w3.org/2000/svg"><path d="m478.056 263.124c-13.592 0-60.547-3.076-94.116-42.661-1.792-2.112-4.125-3.696-6.75-4.581-3.096-1.044-6.539-1.111-9.699-.183-2.858.837-5.408 2.494-7.335 4.765-33.569 39.585-80.52 42.661-94.11 42.661-8.412 0-15.232 6.82-15.232 15.232v86.11c0 39.102 13.07 69.651 37.798 88.344l74.255 56.131c2.717 2.054 5.951 3.081 9.185 3.081s6.468-1.027 9.185-3.081l74.254-56.131c24.728-18.692 37.798-49.241 37.798-88.344v-86.11c-.002-8.414-6.821-15.233-15.233-15.233zm-45.508 69.464-52.171 62.327c-2.886 3.447-7.146 5.444-11.642 5.455-.012 0-.025 0-.038 0-4.481 0-8.736-1.973-11.631-5.397l-32.009-37.852c-5.431-6.424-4.628-16.034 1.796-21.466 6.425-5.432 16.034-4.627 21.466 1.796l20.318 24.028 40.551-48.443c5.4-6.45 15.005-7.304 21.456-1.903 6.451 5.398 7.303 15.004 1.904 21.455z"/><circle cx="132.479" cy="312.76" r="15.232"/><path d="m220.349 278.356c0-25.197 20.499-45.695 45.695-45.695 10.28 0 45.774-2.301 70.877-31.901 5.801-6.837 13.409-11.78 22.007-14.298 3.645-1.069 7.419-1.684 11.236-1.837v-169.393c0-8.412-6.819-15.232-15.231-15.232h-320.967c-8.412 0-15.232 6.82-15.232 15.232v429.641c0 8.412 6.82 15.232 15.232 15.232h218.118c-20.837-24.123-31.734-56.699-31.734-95.638v-86.111zm-87.29-243.83h122.78c8.412 0 15.232 6.82 15.232 15.232s-6.82 15.232-15.232 15.232h-122.78c-8.412 0-15.232-6.82-15.232-15.232s6.82-15.232 15.232-15.232zm-38.152 60.928h198.943c8.412 0 15.232 6.82 15.232 15.232s-6.82 15.232-15.232 15.232h-198.943c-8.412 0-15.232-6.82-15.232-15.232s6.82-15.232 15.232-15.232zm-15.231 76.159c0-8.412 6.82-15.232 15.232-15.232h198.942c8.412 0 15.232 6.82 15.232 15.232s-6.82 15.232-15.232 15.232h-198.943c-8.412 0-15.231-6.82-15.231-15.232zm52.803 186.843c-25.196 0-45.695-20.499-45.695-45.695s20.499-45.695 45.695-45.695 45.695 20.499 45.695 45.695-20.498 45.695-45.695 45.695z"/></svg>