<svg height="510pt" viewBox="0 0 510 510" width="510pt" xmlns="http://www.w3.org/2000/svg"><path d="m7.5 74.800781c-4.101562 0-7.5-3.402343-7.5-7.5v-25.601562c0-23 18.699219-41.699219 41.699219-41.699219h25.601562c4.097657 0 7.5 3.398438 7.5 7.5s-3.402343 7.5-7.5 7.5h-25.601562c-14.699219 0-26.699219 12-26.699219 26.699219v25.601562c0 4.097657-3.300781 7.5-7.5 7.5zm0 0"/><path d="m67.300781 510h-25.601562c-23 0-41.699219-18.699219-41.699219-41.699219v-25.601562c0-4.097657 3.398438-7.5 7.5-7.5s7.5 3.402343 7.5 7.5v25.601562c0 14.699219 12 26.699219 26.699219 26.699219h25.601562c4.097657 0 7.5 3.398438 7.5 7.5s-3.402343 7.5-7.5 7.5zm0 0"/><path d="m468.300781 510h-25.601562c-4.097657 0-7.5-3.398438-7.5-7.5s3.402343-7.5 7.5-7.5h25.601562c14.699219 0 26.699219-12 26.699219-26.699219v-25.601562c0-4.097657 3.398438-7.5 7.5-7.5s7.5 3.402343 7.5 7.5v25.601562c0 23-18.699219 41.699219-41.699219 41.699219zm0 0"/><path d="m502.5 74.800781c-4.101562 0-7.5-3.402343-7.5-7.5v-25.601562c0-14.699219-12-26.699219-26.699219-26.699219h-25.601562c-4.097657 0-7.5-3.398438-7.5-7.5s3.402343-7.5 7.5-7.5h25.601562c23 0 41.597657 18.699219 41.597657 41.601562v25.597657c.101562 4.199219-3.296876 7.601562-7.398438 7.601562zm0 0"/><path d="m41.699219 74.800781c-4.097657 0-7.5-3.402343-7.5-7.5v-17.101562c0-8.800781 7.199219-16 16-16h17.101562c4.097657 0 7.5 3.402343 7.5 7.5 0 4.101562-3.402343 7.5-7.5 7.5h-17.101562c-.597657 0-1 .5-1 1v17.101562c0 4.097657-3.398438 7.5-7.5 7.5zm0 0"/><path d="m67.300781 475.800781h-17.101562c-8.800781 0-16-7.199219-16-16v-17.101562c0-4.097657 3.402343-7.5 7.5-7.5 4.101562 0 7.5 3.402343 7.5 7.5v17.101562c0 .597657.5 1 1 1h17.101562c4.097657 0 7.5 3.398438 7.5 7.5 0 4.097657-3.402343 7.5-7.5 7.5zm0 0"/><path d="m459.800781 475.800781h-17.101562c-4.097657 0-7.5-3.402343-7.5-7.5 0-4.101562 3.402343-7.5 7.5-7.5h17.101562c.597657 0 1-.5 1-1v-17.101562c0-4.097657 3.398438-7.5 7.5-7.5 4.097657 0 7.5 3.402343 7.5 7.5v17.101562c0 8.800781-7.199219 16-16 16zm0 0"/><path d="m468.300781 74.800781c-4.101562 0-7.5-3.402343-7.5-7.5v-17.101562c0-.597657-.5-1-1-1h-17.101562c-4.097657 0-7.5-3.398438-7.5-7.5 0-4.097657 3.402343-7.5 7.5-7.5h17.101562c8.800781 0 16 7.199219 16 16v17.101562c0 4.097657-3.300781 7.5-7.5 7.5zm0 0"/><path d="m340.300781 15h-170.601562c-4.097657 0-7.5-3.398438-7.5-7.5s3.402343-7.5 7.5-7.5h170.699219c4.101562 0 7.5 3.398438 7.5 7.5s-3.398438 7.5-7.597657 7.5zm0 0"/><path d="m323.300781 49.199219h-136.601562c-4.097657 0-7.5-3.398438-7.5-7.5 0-4.097657 3.402343-7.5 7.5-7.5h136.5c4.101562 0 7.5 3.402343 7.5 7.5 0 4.101562-3.300781 7.5-7.398438 7.5zm0 0"/><path d="m323.300781 475.800781h-136.601562c-4.097657 0-7.5-3.402343-7.5-7.5 0-4.101562 3.402343-7.5 7.5-7.5h136.5c4.101562 0 7.5 3.398438 7.5 7.5 0 4.097657-3.300781 7.5-7.398438 7.5zm0 0"/><path d="m340.300781 510h-170.601562c-4.097657 0-7.5-3.398438-7.5-7.5s3.402343-7.5 7.5-7.5h170.699219c4.101562 0 7.5 3.398438 7.5 7.5s-3.398438 7.5-7.597657 7.5zm0 0"/><path d="m7.5 347.800781c-4.101562 0-7.5-3.402343-7.5-7.5v-170.601562c0-4.097657 3.398438-7.5 7.5-7.5s7.5 3.402343 7.5 7.5v170.699219c0 4.101562-3.300781 7.402343-7.5 7.402343zm0 0"/><path d="m41.699219 330.800781c-4.097657 0-7.5-3.402343-7.5-7.5v-136.601562c0-4.097657 3.402343-7.5 7.5-7.5 4.101562 0 7.5 3.402343 7.5 7.5v136.5c0 4.199219-3.398438 7.601562-7.5 7.601562zm0 0"/><path d="m468.300781 330.800781c-4.101562 0-7.5-3.402343-7.5-7.5v-136.601562c0-4.097657 3.398438-7.5 7.5-7.5 4.097657 0 7.5 3.402343 7.5 7.5v136.5c0 4.199219-3.300781 7.601562-7.5 7.601562zm0 0"/><path d="m502.5 347.800781c-4.101562 0-7.5-3.402343-7.5-7.5v-170.601562c0-4.097657 3.398438-7.5 7.5-7.5s7.5 3.402343 7.5 7.5v170.699219c0 4.101562-3.398438 7.402343-7.5 7.402343zm0 0"/><path d="m159.398438 229.800781c-.398438-3.5-1.097657-6.800781-1.898438-10.699219-2.101562-9.800781-3.5-19.703124-4.199219-29.703124-2.199219-1.796876-5-2.699219-7.902343-2.699219-1.796876 8-1.898438 16.300781-.199219 24.300781 2.601562 7.699219 7.601562 14.300781 14.199219 18.800781zm0 0"/><path d="m323.300781 346.601562v11.898438c0 4.699219-3.800781 8.5-8.5 8.5s-8.5-3.800781-8.5-8.5v-24.699219c-8.800781 12.199219-17.402343 23.597657-37.902343 23.597657h-26.597657c-20.5 0-29-11.398438-37.902343-23.597657v24.699219c0 4.699219-3.796876 8.5-8.5 8.5-4.699219 0-8.5-3.800781-8.5-8.5v-11.898438c-3.5 2-7.398438 4.097657-11.597657 6.199219-1.800781 15.800781-3.601562 57.5 24.699219 72.898438h110.300781c28.398438-15.398438 26.597657-57.097657 24.699219-72.898438-4.300781-2-8.300781-4.199219-11.699219-6.199219zm0 0"/><path d="m157.398438 359.699219c-1.597657.402343-3.199219.902343-4.699219 1.101562-10.5 2.300781-20.5 6.300781-29.597657 11.898438-9.5 5.402343-19.101562 10.601562-28.703124 15.800781-1.597657.898438-3.5 1.699219-5.398438 2.699219-4.699219 1.699219-9 4.402343-12.601562 8-.597657 1.902343-.796876 4-.5 6 0 1.101562.101562 2.199219.101562 3.402343v8.296876c.101562 5.101562 4.300781 9.101562 9.300781 9h88.5c-15.902343-20.097657-17.5-47.898438-16.402343-66.199219zm0 0"/><path d="m364.898438 210.601562c1.601562-7.902343 1.5-16-.199219-23.902343-2.898438 0-5.699219.902343-7.898438 2.699219-.699219 10-2.101562 19.902343-4.199219 29.703124-.800781 3.796876-1.402343 7.199219-1.902343 10.699219 6.601562-4.699219 11.601562-11.402343 14.199219-19.199219zm0 0"/><path d="m339.898438 184.5c.601562-13.300781.5-26.699219-.296876-40-2.902343-56.398438-75.300781-60-78.402343-60.199219h-13c-2.699219.097657-75.097657 3.800781-78 60.199219-.800781 13.300781-.898438 26.699219-.300781 40v.101562c.5 10.5 1.902343 20.898438 4.101562 31.199219 1.699219 7.398438 2.699219 15 2.800781 22.5 0 1.898438-.101562 3.699219-.199219 5.5v1.199219c-.101562 1.699219-.101562 3.398438-.203124 5-.898438 17.800781-1.597657 30.601562 17.402343 46.800781 8.800781 7.800781 16.597657 16.597657 23.199219 26.300781 8.800781 12.199219 12.898438 17.199219 24.5 17.199219h26.601562c11.597657 0 15.699219-5 24.5-17.199219 6.597657-9.703124 14.398438-18.5 23.199219-26.300781 18.898438-16.199219 18.300781-29 17.398438-46.800781-.097657-1.601562-.097657-3.398438-.199219-5 0-.398438 0-.800781 0-1.199219-.101562-1.800781-.199219-3.601562-.199219-5.5.097657-7.601562 1-15.199219 2.800781-22.5 2.398438-10.300781 3.796876-20.699219 4.296876-31.300781zm-84.898438 53.398438c-37.699219 0-68.300781-30.597657-68.300781-68.296876 0-37.703124 30.601562-68.300781 68.300781-68.300781s68.300781 30.597657 68.300781 68.300781c-.101562 37.796876-30.601562 68.296876-68.300781 68.296876zm0 0"/><path d="m255 118.5c-28.300781 0-51.199219 22.898438-51.199219 51.199219s22.898438 51.199219 51.199219 51.199219 51.199219-22.898438 51.199219-51.199219-22.898438-51.199219-51.199219-51.199219zm31.601562 70.699219c2.199219 2.101562 3.097657 5.300781 2.296876 8.300781-.796876 3-3.097657 5.300781-6.097657 6.101562-3 .796876-6.199219-.101562-8.300781-2.300781l-19.5-19.601562-19.601562 19.601562c-3.296876 3.199219-8.699219 3.199219-12-.101562-3.296876-3.300781-3.296876-8.597657-.097657-12l19.597657-19.597657-19.597657-19.601562c-3.199219-3.300781-3.199219-8.699219.097657-12 3.300781-3.300781 8.601562-3.300781 12-.101562l19.601562 19.601562 19.601562-19.601562c3.296876-3.199219 8.699219-3.199219 12 .101562 3.296876 3.300781 3.296876 8.601562.097657 12l-19.597657 19.601562zm0 0"/><path d="m433.601562 399.101562c-3.5-3.601562-7.800781-6.300781-12.601562-8-2-.902343-3.800781-1.800781-5.398438-2.703124-9.601562-5.097657-19.203124-10.296876-28.703124-15.796876-9.097657-5.601562-19.097657-9.601562-29.597657-11.902343-1.601562-.300781-3.101562-.699219-4.699219-1.097657 1.097657 18.296876-.5 46.097657-16.402343 66h88.5c5.101562.097657 9.199219-3.902343 9.300781-9v-8.300781c0-1.101562 0-2.199219.101562-3.402343.296876-1.796876.199219-3.898438-.5-5.796876zm0 0"/></svg>