<?xml version="1.0" encoding="utf-8"?>
<!-- Generator: Adobe Illustrator 23.0.3, SVG Export Plug-In . SVG Version: 6.00 Build 0)  -->
<svg version="1.1" id="Layer_1" xmlns="http://www.w3.org/2000/svg" xmlns:xlink="http://www.w3.org/1999/xlink" x="0px" y="0px"
	 viewBox="0 0 397 485" style="enable-background:new 0 0 397 485;" xml:space="preserve">
<g>
	<g>
		<g>
			<path d="M296.7,0H11v485h375V94.5L296.7,0z M301,26.4L361.1,90H301V26.4z M371,470H26V15h260v90h85V470z"/>
			<path d="M198.5,370c64.8,0,117.5-52.7,117.5-117.5S263.3,135,198.5,135S81,187.7,81,252.5S133.7,370,198.5,370z M198.5,150
				C255,150,301,196,301,252.5S255,355,198.5,355S96,309,96,252.5S142,150,198.5,150z"/>
			<polygon points="205.5,308.8 205.5,166.9 190.5,166.9 190.5,307.8 153.8,271.1 143.2,281.7 198.5,337 253.8,281.7 243.2,271.1 
							"/>
		</g>
	</g>
</g>
</svg>
