<svg id="Layer_1" height="512" viewBox="0 0 128 128" width="512" xmlns="http://www.w3.org/2000/svg" data-name="Layer 1"><path d="m6.5 6.5h115v115h-115z" fill="#f2f2f2"/><g fill="#fcb44d"><path d="m6.5 6.5h115v17.69h-115z"/><circle cx="47.008" cy="77.932" r="8.531"/><circle cx="80.992" cy="77.932" r="8.531"/><path d="m87.773 79.681a1.75 1.75 0 0 1 -1.75-1.75v-34.759l-30.484 5.51v29.25a1.75 1.75 0 0 1 -3.5 0v-30.713a1.749 1.749 0 0 1 1.439-1.719l33.984-6.143a1.75 1.75 0 0 1 2.062 1.722v36.852a1.75 1.75 0 0 1 -1.751 1.75z"/><path d="m101.654 110.027h-75.308a1.75 1.75 0 1 1 0-3.5h75.309a1.75 1.75 0 0 1 0 3.5z"/></g><path d="m54.6 106.53a3.989 3.989 0 0 0 -7.18 0h-21.07a1.75 1.75 0 0 0 0 3.5h21.07a3.994 3.994 0 1 0 7.18-3.5z" fill="#d69941"/></svg>