<?xml version="1.0" encoding="utf-8"?>
<!-- Generator: Adobe Illustrator 24.1.0, SVG Export Plug-In . SVG Version: 6.00 Build 0)  -->
<svg version="1.1" id="Layer_1" xmlns="http://www.w3.org/2000/svg" xmlns:xlink="http://www.w3.org/1999/xlink" x="0px" y="0px"
	 viewBox="0 0 426 372.8" style="enable-background:new 0 0 426 372.8;" xml:space="preserve">
<path d="M309.5,85.3h-10.6V62.1c14.7-5.2,23.5-20.2,20.8-35.5C317.1,11.2,303.8,0,288.3,0c-15.6,0-28.8,11.2-31.5,26.5
	c-2.6,15.3,6.2,30.3,20.8,35.5v23.3H149.8V62.1c14.7-5.2,23.5-20.2,20.8-35.5C168.1,11.2,154.8,0,139.2,0s-28.9,11.2-31.5,26.5
	c-2.6,15.3,6.2,30.3,20.8,35.5v23.3h-10.6c-29.4,0-53.2,23.8-53.2,53.2v181c0,29.4,23.8,53.2,53.2,53.2h31.9h98.9h60.8
	c29.4,0,53.2-23.8,53.2-53.2v-181C362.8,109.2,338.9,85.3,309.5,85.3z M160.5,149.2c17.6,0,31.9,14.3,31.9,31.9
	c0,5.9-4.8,10.6-10.6,10.6c-5.9,0-10.6-4.8-10.6-10.6c0-5.9-4.8-10.6-10.6-10.6c-5.9,0-10.6,4.8-10.6,10.6c0,5.9-4.8,10.6-10.6,10.6
	c-5.9,0-10.6-4.8-10.6-10.6C128.6,163.5,142.9,149.2,160.5,149.2z M293,281.1c-24.8,11.7-51.9,17.6-79.3,17.2
	c-27.4,0.4-54.5-5.5-79.3-17.2c-5.3-2.6-7.4-9-4.8-14.3c2.6-5.3,9-7.4,14.3-4.8c39.8,19.9,99.8,19.9,139.5,0
	c5.3-2.6,11.7-0.5,14.3,4.8C300.4,272.1,298.3,278.5,293,281.1z M288.3,191.8c-2.8,0-5.5-1.1-7.5-3.1c-2-2-3.1-4.7-3.1-7.5
	c0-5.9-4.8-10.6-10.6-10.6s-10.6,4.8-10.6,10.6c0,5.9-4.8,10.6-10.6,10.6c-5.9,0-10.6-4.8-10.6-10.6c0-17.6,14.3-31.9,31.9-31.9
	c17.6,0,31.9,14.3,31.9,31.9c0,2.8-1.1,5.5-3.1,7.5C293.8,190.7,291.1,191.8,288.3,191.8z"/>
<path d="M394.7,170.5h-10.6V277h10.6c17.6,0,31.9-14.3,31.9-31.9v-42.6C426.6,184.8,412.4,170.5,394.7,170.5z"/>
<path d="M0.8,202.4V245c0,17.6,14.3,31.9,31.9,31.9h10.6V170.5H32.7C15.1,170.5,0.8,184.8,0.8,202.4z"/>
</svg>
