<svg id="_x31_px" enable-background="new 0 0 24 24" height="512" viewBox="0 0 24 24" width="512" xmlns="http://www.w3.org/2000/svg"><path d="m12 18c-3.309 0-6-2.691-6-6s2.691-6 6-6 6 2.691 6 6-2.691 6-6 6zm0-11c-2.757 0-5 2.243-5 5s2.243 5 5 5 5-2.243 5-5-2.243-5-5-5z"/><path d="m14 14.5c-.104 0-.21-.033-.3-.1l-2-1.5c-.126-.094-.2-.243-.2-.4v-3c0-.276.224-.5.5-.5s.5.224.5.5v2.75l1.8 1.35c.221.166.266.479.101.7-.099.131-.25.2-.401.2z"/><path d="m.77 15c-.229 0-.436-.158-.488-.391-.187-.831-.282-1.71-.282-2.609 0-6.617 5.383-12 12-12 3.754 0 7.22 1.711 9.507 4.696.168.219.127.533-.093.701-.217.167-.533.127-.7-.093-2.098-2.735-5.274-4.304-8.714-4.304-6.065 0-11 4.935-11 11 0 .826.087 1.63.258 2.391.061.269-.109.537-.379.597-.037.008-.073.012-.109.012z"/><path d="m12 24c-3.754 0-7.22-1.711-9.507-4.696-.168-.219-.127-.533.093-.701.215-.167.533-.127.7.093 2.098 2.735 5.274 4.304 8.714 4.304 6.065 0 11-4.935 11-11 0-.839-.09-1.641-.267-2.384-.064-.269.102-.538.37-.602.271-.064.538.102.603.371.195.818.294 1.698.294 2.615 0 6.617-5.383 12-12 12z"/><path d="m2.55 24c-.274 0-.497-.221-.5-.495l-.05-5c-.001-.133.051-.262.145-.356.093-.096.221-.149.355-.149h5c.276 0 .5.224.5.5s-.224.5-.5.5h-4.495l.045 4.495c.003.276-.219.502-.495.505-.002 0-.003 0-.005 0z"/><path d="m21.5 6h-5c-.276 0-.5-.224-.5-.5s.224-.5.5-.5h4.5v-4.5c0-.276.224-.5.5-.5s.5.224.5.5v5c0 .276-.224.5-.5.5z"/></svg>